%
M48
M72
T01C0.0118
T02C0.0320
T03C0.0394
T04C0.0400
T05C0.0433
T06C0.0630
T07C0.0787
T08C0.0945
T09C0.1201
T10C0.1614
%
T01
X7765Y3390
X8265Y3390
X8765Y3390
X9265Y3390
X9765Y3390
X10265Y3390
X11640Y3390
X12140Y3390
X12640Y3390
X13140Y3390
X13640Y3390
X14140Y3390
X15515Y3390
X16015Y3390
X16515Y3390
X17015Y3390
X17515Y3390
X18015Y3390
X19390Y3390
X19890Y3390
X20390Y3390
X20890Y3390
X21390Y3390
X21890Y3390
X23265Y3390
X23765Y3390
X24265Y3390
X24765Y3390
X25265Y3390
X25765Y3390
X27140Y3390
X27640Y3390
X28140Y3390
X28640Y3390
X29140Y3390
X29640Y3390
X31015Y3390
X31515Y3390
X32015Y3390
X32515Y3390
X33015Y3390
X33515Y3390
X34890Y3390
X35390Y3390
X35890Y3390
X36390Y3390
X36890Y3390
X37390Y3390
X38265Y5140
X39265Y5765
X39765Y6265
X38390Y6265
X39640Y7015
X40140Y7015
X40640Y7015
X42140Y7390
X42015Y7890
X42515Y7890
X42890Y8015
X43140Y8015
X43640Y7765
X44140Y7765
X44481Y7913
X44765Y8140
X45015Y7890
X45390Y7515
X45765Y7515
X45890Y7140
X45765Y6640
X44140Y7390
X43640Y7390
X43140Y7390
X41140Y7765
X40640Y7765
X40140Y7765
X39640Y7765
X38390Y7265
X36704Y7515
X36704Y7890
X36329Y7890
X36329Y7515
X35951Y7515
X35576Y7515
X35576Y7890
X35951Y7890
X35951Y8265
X35576Y8265
X35576Y8640
X35951Y8640
X36329Y8640
X36704Y8640
X36704Y8265
X36329Y8265
X38390Y8265
X38890Y8640
X38890Y9390
X38140Y9265
X37451Y9515
X37451Y9890
X37076Y9890
X36701Y9890
X36326Y9890
X35951Y9890
X35951Y10265
X36326Y10265
X36701Y10265
X37076Y10265
X37451Y10265
X38890Y10265
X39515Y10765
X39515Y11140
X38640Y11390
X39140Y11890
X39515Y12265
X40140Y12390
X40765Y12265
X41515Y12265
X42265Y12390
X42890Y13015
X43765Y12890
X44015Y13140
X44640Y12890
X46390Y13265
X46640Y13640
X47640Y13265
X48890Y13265
X49810Y12996
X47390Y12015
X48140Y11640
X48515Y11640
X49504Y11710
X52015Y11640
X52390Y11640
X53390Y11640
X55890Y11640
X56265Y11640
X57160Y11649
X59765Y11640
X60140Y11640
X61019Y11649
X63640Y11640
X64015Y11640
X64878Y11771
X64510Y12629
X64640Y13640
X64640Y14015
X60774Y12629
X56976Y12629
X53363Y12568
X53765Y14515
X52640Y14515
X51765Y15015
X52265Y15265
X52265Y15640
X52265Y16015
X51515Y16015
X53890Y16015
X53890Y15640
X53890Y15265
X55140Y15640
X55015Y14390
X59515Y15201
X59890Y15201
X60265Y15201
X60640Y15201
X60640Y15576
X60265Y15576
X59890Y15576
X59515Y15576
X59515Y15954
X59515Y16329
X59890Y16329
X60265Y16329
X60640Y16329
X60640Y15954
X60265Y15954
X59890Y15954
X55015Y17140
X54390Y18015
X50765Y16890
X50015Y17765
X49015Y17765
X47390Y17890
X45829Y17765
X45824Y18204
X48015Y18890
X48515Y18890
X49265Y18890
X50015Y18765
X47265Y19140
X46380Y18999
X46074Y18999
X45069Y19198
X46294Y19504
X45069Y20361
X45523Y20959
X45620Y21403
X45640Y22015
X46640Y22015
X47640Y22015
X48640Y22015
X49640Y22015
X50640Y22015
X51640Y22015
X52640Y22015
X53640Y22015
X54640Y22015
X55640Y22015
X55140Y21515
X54140Y21515
X53140Y21515
X52140Y21515
X53140Y20390
X56140Y21515
X57140Y21515
X58140Y21515
X57640Y22015
X56640Y22015
X58640Y22015
X59640Y22015
X60640Y22015
X60140Y21515
X59140Y21515
X61140Y21515
X62140Y21515
X63140Y21515
X64140Y21515
X63640Y22015
X62640Y22015
X61640Y22015
X64640Y22015
X65640Y22015
X66640Y22015
X66140Y21515
X65140Y21515
X67140Y21515
X68140Y21515
X69140Y21515
X68640Y22015
X67640Y22015
X69640Y22015
X70640Y22015
X71640Y22015
X71140Y21515
X70140Y21515
X72140Y21515
X73140Y21515
X74140Y21515
X73640Y22015
X72640Y22015
X74640Y22015
X75640Y22015
X75140Y21515
X76140Y21515
X75640Y21015
X76640Y21015
X76140Y20515
X77140Y20515
X76640Y20015
X77640Y20015
X77140Y19515
X78140Y19515
X77640Y19015
X78140Y18515
X79140Y18515
X78640Y18015
X79640Y18015
X79140Y17515
X80140Y17515
X79640Y17015
X80640Y17015
X80140Y16515
X80640Y16015
X81140Y15515
X80640Y15015
X81140Y14515
X80640Y14015
X81140Y13515
X80640Y13015
X81140Y12515
X80640Y12015
X79640Y12015
X79015Y11515
X79640Y11015
X79015Y10515
X79640Y10015
X80640Y10015
X81140Y9515
X80640Y9015
X79640Y9015
X79015Y8515
X79515Y8015
X79015Y7515
X79515Y7015
X80640Y7015
X81140Y7515
X81140Y8515
X79015Y9515
X77003Y9485
X77003Y9860
X76628Y9860
X76253Y9860
X75878Y9860
X75503Y9860
X75503Y10235
X75878Y10235
X76253Y10235
X76628Y10235
X77003Y10235
X75640Y11640
X75265Y11640
X72840Y11771
X71765Y11640
X71390Y11640
X69048Y11710
X67890Y11640
X67515Y11640
X68640Y12640
X72350Y12629
X79015Y12515
X81140Y11515
X81140Y10515
X76304Y8579
X76304Y8204
X75929Y8204
X75929Y8579
X75551Y8579
X75176Y8579
X75176Y8204
X75551Y8204
X75551Y7829
X75176Y7829
X75176Y7454
X75551Y7454
X75929Y7454
X75929Y7829
X76304Y7829
X76304Y7454
X72436Y7425
X72061Y7425
X72061Y7800
X72436Y7800
X71684Y7800
X71684Y7425
X71309Y7425
X71309Y7800
X71309Y8175
X71684Y8175
X71684Y8550
X71309Y8550
X72061Y8550
X72061Y8175
X72436Y8175
X72436Y8550
X73115Y9498
X73115Y9873
X72740Y9873
X72365Y9873
X71990Y9873
X71615Y9873
X71615Y10248
X71990Y10248
X72365Y10248
X72740Y10248
X73115Y10248
X69304Y10248
X68929Y10248
X68554Y10248
X68179Y10248
X67804Y10248
X67804Y9873
X68179Y9873
X68554Y9873
X68929Y9873
X69304Y9873
X69304Y9498
X68554Y8579
X68554Y8204
X68179Y8204
X68179Y8579
X67801Y8579
X67426Y8579
X67426Y8204
X67801Y8204
X67801Y7829
X67426Y7829
X67426Y7454
X67801Y7454
X68179Y7454
X68179Y7829
X68554Y7829
X68554Y7454
X64714Y7481
X64339Y7481
X64339Y7856
X64714Y7856
X63961Y7856
X63586Y7856
X63586Y7481
X63961Y7481
X63961Y8231
X63586Y8231
X63586Y8606
X63961Y8606
X64339Y8606
X64714Y8606
X64714Y8231
X64339Y8231
X60799Y8231
X60799Y8606
X60424Y8606
X60424Y8231
X60046Y8231
X59671Y8231
X59671Y8606
X60046Y8606
X60046Y7856
X60046Y7481
X59671Y7481
X59671Y7856
X60424Y7856
X60424Y7481
X60799Y7481
X60799Y7856
X56935Y7861
X56935Y7486
X56560Y7486
X56560Y7861
X56183Y7861
X56183Y7486
X55808Y7486
X55808Y7861
X55808Y8236
X56183Y8236
X56183Y8611
X55808Y8611
X56560Y8611
X56560Y8236
X56935Y8236
X56935Y8611
X57653Y9475
X57653Y9850
X57278Y9850
X56903Y9850
X56528Y9850
X56153Y9850
X56153Y10225
X56528Y10225
X56903Y10225
X57278Y10225
X57653Y10225
X60054Y10248
X60429Y10248
X60804Y10248
X61179Y10248
X61554Y10248
X61554Y9873
X61179Y9873
X60804Y9873
X60429Y9873
X60054Y9873
X61554Y9498
X63936Y9855
X64311Y9855
X64686Y9855
X65061Y9855
X65436Y9855
X65436Y9480
X65436Y10230
X65061Y10230
X64686Y10230
X64311Y10230
X63936Y10230
X53804Y10248
X53429Y10248
X53054Y10248
X52679Y10248
X52304Y10248
X52304Y9873
X52679Y9873
X53054Y9873
X53429Y9873
X53804Y9873
X53804Y9498
X53071Y8606
X52696Y8606
X52696Y8231
X53071Y8231
X52319Y8231
X51944Y8231
X51944Y8606
X52319Y8606
X52319Y7856
X52319Y7481
X51944Y7481
X51944Y7856
X52696Y7856
X52696Y7481
X53071Y7481
X53071Y7856
X49204Y7890
X49204Y7515
X48829Y7515
X48829Y7890
X48451Y7890
X48076Y7890
X48076Y7515
X48451Y7515
X48451Y8265
X48076Y8265
X48076Y8640
X48451Y8640
X48829Y8640
X49204Y8640
X49204Y8265
X48829Y8265
X45765Y8265
X45390Y8265
X43640Y8640
X43144Y8990
X42776Y8990
X42015Y9390
X41390Y9015
X42015Y8640
X46265Y9265
X46890Y9265
X48390Y9890
X48765Y9890
X49140Y9890
X49515Y9890
X49890Y9890
X49890Y9515
X49890Y10265
X49515Y10265
X49140Y10265
X48765Y10265
X48390Y10265
X46765Y11140
X46265Y11015
X45515Y11015
X45015Y11015
X44390Y10640
X43515Y10765
X42890Y10765
X42890Y11140
X42015Y10765
X42015Y10015
X43515Y11765
X45390Y12015
X46390Y12015
X43765Y13765
X45140Y14265
X45390Y14515
X46390Y14640
X47640Y14640
X48890Y14640
X44640Y15390
X44265Y15140
X43549Y15418
X42939Y15418
X42265Y15418
X40979Y15540
X40244Y15540
X39509Y15540
X40390Y14140
X40140Y13890
X39765Y13890
X40640Y13390
X40265Y13265
X39890Y13265
X38515Y12515
X38015Y13015
X37265Y12265
X36941Y11764
X37890Y11890
X35515Y11515
X35515Y11140
X33576Y10265
X33201Y10265
X32826Y10265
X32451Y10265
X32076Y10265
X32076Y9890
X32451Y9890
X32826Y9890
X33201Y9890
X33576Y9890
X33576Y9515
X32829Y8640
X32829Y8265
X32454Y8265
X32454Y8640
X32076Y8640
X31701Y8640
X31701Y8265
X32076Y8265
X32076Y7890
X31701Y7890
X31701Y7515
X32076Y7515
X32454Y7515
X32829Y7515
X32829Y7890
X32454Y7890
X28954Y7890
X28954Y7515
X28579Y7515
X28579Y7890
X28201Y7890
X27826Y7890
X27826Y7515
X28201Y7515
X28201Y8265
X27826Y8265
X27826Y8640
X28201Y8640
X28579Y8640
X28954Y8640
X28954Y8265
X28579Y8265
X25079Y8265
X25079Y8640
X24704Y8640
X24704Y8265
X24326Y8265
X23951Y8265
X23951Y8640
X24326Y8640
X24326Y7890
X23951Y7890
X23951Y7515
X24326Y7515
X24704Y7515
X25079Y7515
X25079Y7890
X24704Y7890
X21204Y7890
X21204Y7515
X20829Y7515
X20829Y7890
X20451Y7890
X20076Y7890
X20076Y7515
X20451Y7515
X20451Y8265
X20076Y8265
X20076Y8640
X20451Y8640
X20829Y8640
X21204Y8640
X21204Y8265
X20829Y8265
X17329Y8265
X17329Y8640
X16954Y8640
X16954Y8265
X16576Y8265
X16201Y8265
X16201Y8640
X16576Y8640
X16576Y7890
X16201Y7890
X16201Y7515
X16576Y7515
X16954Y7515
X17329Y7515
X17329Y7890
X16954Y7890
X13454Y7890
X13454Y7515
X13079Y7515
X13079Y7890
X12701Y7890
X12326Y7890
X12326Y7515
X12701Y7515
X12701Y8265
X12326Y8265
X12326Y8640
X12701Y8640
X13079Y8640
X13454Y8640
X13454Y8265
X13079Y8265
X9579Y8265
X9579Y8640
X9204Y8640
X9204Y8265
X8826Y8265
X8451Y8265
X8451Y8640
X8826Y8640
X8826Y7890
X8451Y7890
X8451Y7515
X8826Y7515
X9204Y7515
X9579Y7515
X9579Y7890
X9204Y7890
X5640Y7515
X5140Y7015
X4015Y7015
X3515Y7515
X5140Y8015
X5640Y8515
X5140Y9015
X5640Y9515
X5140Y10015
X5640Y10515
X5140Y11015
X5640Y11515
X5140Y12015
X5640Y12515
X4015Y12015
X3515Y11515
X3515Y10515
X4015Y10015
X3515Y9515
X4015Y9015
X3515Y8515
X8826Y9890
X9201Y9890
X9576Y9890
X9951Y9890
X10326Y9890
X10326Y9515
X10326Y10265
X9951Y10265
X9576Y10265
X9201Y10265
X8826Y10265
X8890Y11640
X8515Y11640
X10015Y11640
X12390Y11640
X12765Y11640
X13890Y11640
X16265Y11640
X16640Y11640
X18265Y11890
X20140Y11640
X20515Y11640
X21515Y11640
X24015Y11640
X24390Y11640
X25390Y11640
X27890Y11640
X28265Y11640
X29289Y11646
X31765Y11640
X32140Y11640
X33140Y11765
X33946Y12323
X36948Y13249
X33515Y14265
X32140Y14265
X31015Y14265
X29765Y14390
X31140Y15265
X31140Y15640
X31140Y16015
X30515Y15640
X32765Y15640
X32765Y16015
X32765Y15265
X34515Y15140
X35390Y15890
X36201Y16704
X36753Y17194
X37243Y17684
X37733Y18174
X40765Y18765
X40015Y19515
X39765Y20765
X39015Y21265
X38015Y21265
X37015Y21265
X36015Y21265
X35015Y21265
X34015Y21265
X32515Y21515
X31515Y21515
X30515Y21515
X30015Y22015
X29015Y22015
X28015Y22015
X27015Y22015
X26515Y21515
X25515Y21515
X24515Y21515
X24015Y22015
X23015Y22015
X22015Y22015
X21515Y21515
X20515Y21515
X19515Y21515
X19015Y22015
X18015Y22015
X17015Y22015
X16515Y21515
X15515Y21515
X14515Y21515
X13515Y21515
X13015Y22015
X12015Y22015
X11015Y22015
X10515Y21515
X9515Y21515
X8515Y21515
X8015Y21015
X9015Y21015
X8515Y20515
X8015Y20015
X7015Y20015
X6515Y19515
X7515Y19515
X7015Y19015
X6015Y19015
X5515Y18515
X6515Y18515
X6015Y18015
X5515Y17515
X4515Y17515
X4015Y17015
X5015Y17015
X4515Y16515
X3515Y16515
X4015Y16015
X3515Y15515
X4015Y15015
X3515Y14515
X4015Y14015
X3515Y13515
X4015Y13015
X3515Y12515
X11140Y12765
X15015Y12765
X19390Y12640
X20390Y13515
X20765Y13515
X22515Y12640
X26265Y12640
X30271Y12629
X29701Y10265
X29326Y10265
X28951Y10265
X28576Y10265
X28201Y10265
X28201Y9890
X28576Y9890
X28951Y9890
X29326Y9890
X29701Y9890
X29701Y9515
X25826Y9515
X25826Y9890
X25451Y9890
X25076Y9890
X24701Y9890
X24326Y9890
X24326Y10265
X24701Y10265
X25076Y10265
X25451Y10265
X25826Y10265
X21951Y10265
X21576Y10265
X21201Y10265
X20826Y10265
X20451Y10265
X20451Y9890
X20826Y9890
X21201Y9890
X21576Y9890
X21951Y9890
X21951Y9515
X18076Y9515
X18076Y9890
X17701Y9890
X17326Y9890
X16951Y9890
X16576Y9890
X16576Y10265
X16951Y10265
X17326Y10265
X17701Y10265
X18076Y10265
X14201Y10265
X13826Y10265
X13451Y10265
X13076Y10265
X12701Y10265
X12701Y9890
X13076Y9890
X13451Y9890
X13826Y9890
X14201Y9890
X14201Y9515
X24140Y15201
X24515Y15201
X24890Y15201
X25265Y15201
X25265Y15576
X24890Y15576
X24515Y15576
X24140Y15576
X24140Y15954
X24140Y16329
X24515Y16329
X24890Y16329
X25265Y16329
X25265Y15954
X24890Y15954
X24515Y15954
X18890Y16265
X18890Y16640
X17640Y16640
X17640Y16265
X14390Y16265
X14390Y16640
X13140Y16640
X13140Y16265
X5015Y18015
X10890Y19640
X12140Y19640
X15390Y19640
X16640Y19640
X19890Y19640
X21140Y19640
X24140Y19079
X24515Y19079
X24890Y19079
X25265Y19079
X25265Y18704
X24890Y18704
X24515Y18704
X24140Y18704
X24140Y18326
X24140Y17951
X24515Y17951
X24890Y17951
X25265Y17951
X25265Y18326
X24890Y18326
X24515Y18326
X29265Y19390
X30515Y18515
X30515Y17140
X43535Y17883
X44456Y17556
X44456Y16998
X44456Y16439
X44456Y15880
X59515Y17951
X59890Y17951
X60265Y17951
X60640Y17951
X60640Y18326
X60265Y18326
X59890Y18326
X59515Y18326
X59515Y18704
X59515Y19079
X59890Y19079
X60265Y19079
X60640Y19079
X60640Y18704
X60265Y18704
X59890Y18704
X63640Y19765
X64890Y19765
X68140Y19765
X69390Y19765
X72640Y19765
X73890Y19765
X78640Y19015
X71640Y16765
X71640Y16390
X70390Y16390
X70390Y16765
X67140Y16765
X67140Y16390
X65890Y16390
X65890Y16765
X81140Y16515
X46390Y5890
X44390Y5890
X44640Y5140
X45015Y3890
X45515Y3390
X44390Y3390
X7515Y20515
X11515Y21515
X12515Y21515
X14015Y22015
X15015Y22015
X16015Y22015
X17515Y21515
X18515Y21515
X20015Y22015
X21015Y22015
X22515Y21515
X23515Y21515
X25015Y22015
X26015Y22015
X27515Y21515
X28515Y21515
X29515Y21515
X31015Y22015
X32015Y22015
X44640Y22015
X10015Y22015
X9015Y22015
T02
X29765Y18390
X31765Y18390
X33515Y18890
X34515Y18890
X35515Y18890
X36515Y18890
X37515Y18890
X38515Y18890
X39515Y18890
X39515Y21890
X38515Y21890
X37515Y21890
X36515Y21890
X35515Y21890
X34515Y21890
X33515Y21890
X53015Y18640
X55015Y18640
T03
X50390Y20265
X49390Y20265
X48390Y20265
X47390Y20265
X46390Y20265
X46390Y21265
X47390Y21265
X48390Y21265
X49390Y21265
X50390Y21265
X64265Y19874
X68765Y19874
X73265Y19874
X73265Y17906
X68765Y17906
X64265Y17906
X66515Y16374
X71015Y16374
X71015Y14406
X66515Y14406
X20515Y17906
X18265Y16374
X13765Y16374
X11515Y17906
X16015Y17906
X16015Y19874
X11515Y19874
X20515Y19874
X18265Y14406
X13765Y14406
T04
X45015Y6640
X45015Y5640
X45015Y4640
T05
X47954Y4226
X49331Y4226
X51829Y4226
X53206Y4226
X55704Y4226
X57081Y4226
X59579Y4226
X60956Y4226
X63454Y4226
X64831Y4226
X67329Y4226
X68706Y4226
X71204Y4226
X72581Y4226
X75079Y4226
X76456Y4226
X36829Y4226
X35451Y4226
X32954Y4226
X31576Y4226
X29079Y4226
X27701Y4226
X25204Y4226
X23826Y4226
X21329Y4226
X19951Y4226
X17454Y4226
X16076Y4226
X13579Y4226
X12201Y4226
X9704Y4226
X8326Y4226
X27826Y20554
X29204Y20554
X55576Y20429
X56954Y20429
T06
X58430Y20429
X54100Y20429
X30680Y20554
X26350Y20554
T07
X7390Y21765
X3765Y18140
X77265Y21765
X80890Y18140
T08
X78365Y16240
X75165Y16240
X75165Y13540
X78365Y13540
X9615Y13540
X6415Y13540
X6415Y16240
X9615Y16240
T09
X9615Y14890
X6415Y14890
X75165Y14890
X78365Y14890
T10
X79984Y20803
X42385Y20803
X4787Y20803
X4787Y4662
X42385Y4662
X79984Y4662
M30
