G75*
G70*
%OFA0B0*%
%FSLAX24Y24*%
%IPPOS*%
%LPD*%
%AMOC8*
5,1,8,0,0,1.08239X$1,22.5*
%
%ADD10C,0.0080*%
%ADD11C,0.1000*%
%ADD12R,0.0020X0.0020*%
%ADD13R,0.0020X0.0180*%
%ADD14R,0.0020X0.0160*%
%ADD15R,0.0020X0.0700*%
%ADD16R,0.0020X0.0340*%
%ADD17R,0.0020X0.0100*%
%ADD18R,0.0020X0.0740*%
%ADD19R,0.0020X0.0460*%
%ADD20R,0.0020X0.0200*%
%ADD21R,0.0020X0.0140*%
%ADD22R,0.0020X0.0500*%
%ADD23R,0.0020X0.0560*%
%ADD24R,0.0020X0.0580*%
%ADD25R,0.0020X0.0220*%
%ADD26R,0.0020X0.0660*%
%ADD27R,0.0020X0.0260*%
%ADD28R,0.0020X0.0240*%
%ADD29R,0.0020X0.0280*%
%ADD30R,0.0020X0.0120*%
%ADD31R,0.0020X0.0300*%
%ADD32R,0.0020X0.0320*%
%ADD33R,0.0020X0.0720*%
%ADD34R,0.0020X0.0680*%
%ADD35R,0.0020X0.0640*%
%ADD36R,0.0020X0.0380*%
%ADD37R,0.0020X0.0620*%
%ADD38R,0.0020X0.0360*%
%ADD39R,0.0020X0.0600*%
%ADD40R,0.0020X0.0420*%
%ADD41R,0.0020X0.0080*%
%ADD42R,0.0020X0.0400*%
%ADD43R,0.0020X0.0800*%
%ADD44R,0.0020X0.0520*%
%ADD45R,0.0020X0.0760*%
%ADD46R,0.0020X0.0480*%
%ADD47R,0.0020X0.0540*%
%ADD48R,0.0020X0.0780*%
%ADD49R,0.0020X0.0960*%
%ADD50C,0.0042*%
%ADD51C,0.1674*%
%ADD52C,0.0729*%
%ADD53C,0.0926*%
%ADD54C,0.0045*%
%ADD55C,0.0048*%
%ADD56C,0.0620*%
%ADD57C,0.0049*%
%ADD58OC8,0.0474*%
%ADD59C,0.1261*%
%ADD60OC8,0.1241*%
%ADD61C,0.0800*%
%ADD62C,0.0847*%
%ADD63C,0.0474*%
%ADD64C,0.1241*%
D10*
X007671Y006109D02*
X037140Y006109D01*
X037140Y006187D02*
X007593Y006187D01*
X007514Y006266D02*
X037140Y006266D01*
X037140Y006344D02*
X007436Y006344D01*
X007357Y006423D02*
X008107Y006423D01*
X008140Y006390D02*
X006640Y007890D01*
X006640Y011765D01*
X006015Y011765D01*
X006015Y007765D01*
X007765Y006015D01*
X037140Y006015D01*
X037140Y006390D01*
X008140Y006390D01*
X008029Y006501D02*
X007279Y006501D01*
X007200Y006580D02*
X007950Y006580D01*
X007872Y006658D02*
X007122Y006658D01*
X007043Y006737D02*
X007793Y006737D01*
X007715Y006815D02*
X006965Y006815D01*
X006886Y006894D02*
X007636Y006894D01*
X007558Y006972D02*
X006808Y006972D01*
X006729Y007051D02*
X007479Y007051D01*
X007401Y007129D02*
X006651Y007129D01*
X006572Y007208D02*
X007322Y007208D01*
X007244Y007286D02*
X006494Y007286D01*
X006415Y007365D02*
X007165Y007365D01*
X007087Y007443D02*
X006337Y007443D01*
X006258Y007522D02*
X007008Y007522D01*
X006930Y007600D02*
X006180Y007600D01*
X006101Y007679D02*
X006851Y007679D01*
X006773Y007757D02*
X006023Y007757D01*
X006015Y007836D02*
X006694Y007836D01*
X006640Y007914D02*
X006015Y007914D01*
X006015Y007993D02*
X006640Y007993D01*
X006640Y008071D02*
X006015Y008071D01*
X006015Y008150D02*
X006640Y008150D01*
X006640Y008228D02*
X006015Y008228D01*
X006015Y008307D02*
X006640Y008307D01*
X006640Y008385D02*
X006015Y008385D01*
X006015Y008464D02*
X006640Y008464D01*
X006640Y008542D02*
X006015Y008542D01*
X006015Y008621D02*
X006640Y008621D01*
X006640Y008699D02*
X006015Y008699D01*
X006015Y008778D02*
X006640Y008778D01*
X006640Y008856D02*
X006015Y008856D01*
X006015Y008935D02*
X006640Y008935D01*
X006640Y009013D02*
X006015Y009013D01*
X006015Y009092D02*
X006640Y009092D01*
X006640Y009170D02*
X006015Y009170D01*
X006015Y009249D02*
X006640Y009249D01*
X006640Y009327D02*
X006015Y009327D01*
X006015Y009406D02*
X006640Y009406D01*
X006640Y009484D02*
X006015Y009484D01*
X006015Y009563D02*
X006640Y009563D01*
X006640Y009641D02*
X006015Y009641D01*
X006015Y009720D02*
X006640Y009720D01*
X006640Y009798D02*
X006015Y009798D01*
X006015Y009877D02*
X006640Y009877D01*
X006640Y009955D02*
X006015Y009955D01*
X006015Y010034D02*
X006640Y010034D01*
X006640Y010112D02*
X006015Y010112D01*
X006015Y010191D02*
X006640Y010191D01*
X006640Y010269D02*
X006015Y010269D01*
X006015Y010348D02*
X006640Y010348D01*
X006640Y010426D02*
X006015Y010426D01*
X006015Y010505D02*
X006640Y010505D01*
X006640Y010583D02*
X006015Y010583D01*
X006015Y010662D02*
X006640Y010662D01*
X006640Y010740D02*
X006015Y010740D01*
X006015Y010819D02*
X006640Y010819D01*
X006640Y010897D02*
X006015Y010897D01*
X006015Y010976D02*
X006640Y010976D01*
X006640Y011054D02*
X006015Y011054D01*
X006015Y011133D02*
X006640Y011133D01*
X006640Y011211D02*
X006015Y011211D01*
X006015Y011290D02*
X006640Y011290D01*
X006640Y011368D02*
X006015Y011368D01*
X006015Y011447D02*
X006640Y011447D01*
X006640Y011525D02*
X006015Y011525D01*
X006015Y011604D02*
X006640Y011604D01*
X006640Y011682D02*
X006015Y011682D01*
X006015Y011761D02*
X006640Y011761D01*
X008015Y011265D02*
X008015Y009265D01*
X010015Y009265D01*
X010015Y011265D01*
X008015Y011265D01*
X008015Y011211D02*
X010015Y011211D01*
X010015Y011133D02*
X008015Y011133D01*
X008015Y011054D02*
X010015Y011054D01*
X010015Y010976D02*
X008015Y010976D01*
X008015Y010897D02*
X010015Y010897D01*
X010015Y010819D02*
X008015Y010819D01*
X008015Y010740D02*
X010015Y010740D01*
X010015Y010662D02*
X008015Y010662D01*
X008015Y010583D02*
X010015Y010583D01*
X010015Y010505D02*
X008015Y010505D01*
X008015Y010426D02*
X010015Y010426D01*
X010015Y010348D02*
X008015Y010348D01*
X008015Y010269D02*
X010015Y010269D01*
X010015Y010191D02*
X008015Y010191D01*
X008015Y010112D02*
X010015Y010112D01*
X010015Y010034D02*
X008015Y010034D01*
X008015Y009955D02*
X010015Y009955D01*
X010015Y009877D02*
X008015Y009877D01*
X008015Y009798D02*
X010015Y009798D01*
X010015Y009720D02*
X008015Y009720D01*
X008015Y009641D02*
X010015Y009641D01*
X010015Y009563D02*
X008015Y009563D01*
X008015Y009484D02*
X010015Y009484D01*
X010015Y009406D02*
X008015Y009406D01*
X008015Y009327D02*
X010015Y009327D01*
X010015Y008765D02*
X008015Y008765D01*
X008015Y007265D01*
X008515Y006765D01*
X010015Y006765D01*
X010015Y008765D01*
X010015Y008699D02*
X008015Y008699D01*
X008015Y008621D02*
X010015Y008621D01*
X010015Y008542D02*
X008015Y008542D01*
X008015Y008464D02*
X010015Y008464D01*
X010015Y008385D02*
X008015Y008385D01*
X008015Y008307D02*
X010015Y008307D01*
X010015Y008228D02*
X008015Y008228D01*
X008015Y008150D02*
X010015Y008150D01*
X010015Y008071D02*
X008015Y008071D01*
X008015Y007993D02*
X010015Y007993D01*
X010015Y007914D02*
X008015Y007914D01*
X008015Y007836D02*
X010015Y007836D01*
X010015Y007757D02*
X008015Y007757D01*
X008015Y007679D02*
X010015Y007679D01*
X010015Y007600D02*
X008015Y007600D01*
X008015Y007522D02*
X010015Y007522D01*
X010015Y007443D02*
X008015Y007443D01*
X008015Y007365D02*
X010015Y007365D01*
X010015Y007286D02*
X008015Y007286D01*
X008072Y007208D02*
X010015Y007208D01*
X010015Y007129D02*
X008151Y007129D01*
X008229Y007051D02*
X010015Y007051D01*
X010015Y006972D02*
X008308Y006972D01*
X008386Y006894D02*
X010015Y006894D01*
X010015Y006815D02*
X008465Y006815D01*
X007750Y006030D02*
X037140Y006030D01*
X037140Y006765D02*
X035140Y006765D01*
X035140Y008765D01*
X037140Y008765D01*
X037140Y006765D01*
X037140Y006815D02*
X035140Y006815D01*
X035140Y006894D02*
X037140Y006894D01*
X037140Y006972D02*
X035140Y006972D01*
X035140Y007051D02*
X037140Y007051D01*
X037140Y007129D02*
X035140Y007129D01*
X035140Y007208D02*
X037140Y007208D01*
X037140Y007286D02*
X035140Y007286D01*
X035140Y007365D02*
X037140Y007365D01*
X037140Y007443D02*
X035140Y007443D01*
X035140Y007522D02*
X037140Y007522D01*
X037140Y007600D02*
X035140Y007600D01*
X035140Y007679D02*
X037140Y007679D01*
X037140Y007757D02*
X035140Y007757D01*
X035140Y007836D02*
X037140Y007836D01*
X037140Y007914D02*
X035140Y007914D01*
X035140Y007993D02*
X037140Y007993D01*
X037140Y008071D02*
X035140Y008071D01*
X035140Y008150D02*
X037140Y008150D01*
X037140Y008228D02*
X035140Y008228D01*
X035140Y008307D02*
X037140Y008307D01*
X037140Y008385D02*
X035140Y008385D01*
X035140Y008464D02*
X037140Y008464D01*
X037140Y008542D02*
X035140Y008542D01*
X035140Y008621D02*
X037140Y008621D01*
X037140Y008699D02*
X035140Y008699D01*
X035140Y009265D02*
X035140Y011265D01*
X037140Y011265D01*
X037140Y009265D01*
X035140Y009265D01*
X035140Y009327D02*
X037140Y009327D01*
X037140Y009406D02*
X035140Y009406D01*
X035140Y009484D02*
X037140Y009484D01*
X037140Y009563D02*
X035140Y009563D01*
X035140Y009641D02*
X037140Y009641D01*
X037140Y009720D02*
X035140Y009720D01*
X035140Y009798D02*
X037140Y009798D01*
X037140Y009877D02*
X035140Y009877D01*
X035140Y009955D02*
X037140Y009955D01*
X037140Y010034D02*
X035140Y010034D01*
X035140Y010112D02*
X037140Y010112D01*
X037140Y010191D02*
X035140Y010191D01*
X035140Y010269D02*
X037140Y010269D01*
X037140Y010348D02*
X035140Y010348D01*
X035140Y010426D02*
X037140Y010426D01*
X037140Y010505D02*
X035140Y010505D01*
X035140Y010583D02*
X037140Y010583D01*
X037140Y010662D02*
X035140Y010662D01*
X035140Y010740D02*
X037140Y010740D01*
X037140Y010819D02*
X035140Y010819D01*
X035140Y010897D02*
X037140Y010897D01*
X037140Y010976D02*
X035140Y010976D01*
X035140Y011054D02*
X037140Y011054D01*
X037140Y011133D02*
X035140Y011133D01*
X035140Y011211D02*
X037140Y011211D01*
X033265Y011211D02*
X031265Y011211D01*
X031265Y011265D02*
X031265Y009265D01*
X033265Y009265D01*
X033265Y011265D01*
X031265Y011265D01*
X031265Y011133D02*
X033265Y011133D01*
X033265Y011054D02*
X031265Y011054D01*
X031265Y010976D02*
X033265Y010976D01*
X033265Y010897D02*
X031265Y010897D01*
X031265Y010819D02*
X033265Y010819D01*
X033265Y010740D02*
X031265Y010740D01*
X031265Y010662D02*
X033265Y010662D01*
X033265Y010583D02*
X031265Y010583D01*
X031265Y010505D02*
X033265Y010505D01*
X033265Y010426D02*
X031265Y010426D01*
X031265Y010348D02*
X033265Y010348D01*
X033265Y010269D02*
X031265Y010269D01*
X031265Y010191D02*
X033265Y010191D01*
X033265Y010112D02*
X031265Y010112D01*
X031265Y010034D02*
X033265Y010034D01*
X033265Y009955D02*
X031265Y009955D01*
X031265Y009877D02*
X033265Y009877D01*
X033265Y009798D02*
X031265Y009798D01*
X031265Y009720D02*
X033265Y009720D01*
X033265Y009641D02*
X031265Y009641D01*
X031265Y009563D02*
X033265Y009563D01*
X033265Y009484D02*
X031265Y009484D01*
X031265Y009406D02*
X033265Y009406D01*
X033265Y009327D02*
X031265Y009327D01*
X031265Y008765D02*
X031265Y006765D01*
X033265Y006765D01*
X033265Y008765D01*
X031265Y008765D01*
X031265Y008699D02*
X033265Y008699D01*
X033265Y008621D02*
X031265Y008621D01*
X031265Y008542D02*
X033265Y008542D01*
X033265Y008464D02*
X031265Y008464D01*
X031265Y008385D02*
X033265Y008385D01*
X033265Y008307D02*
X031265Y008307D01*
X031265Y008228D02*
X033265Y008228D01*
X033265Y008150D02*
X031265Y008150D01*
X031265Y008071D02*
X033265Y008071D01*
X033265Y007993D02*
X031265Y007993D01*
X031265Y007914D02*
X033265Y007914D01*
X033265Y007836D02*
X031265Y007836D01*
X031265Y007757D02*
X033265Y007757D01*
X033265Y007679D02*
X031265Y007679D01*
X031265Y007600D02*
X033265Y007600D01*
X033265Y007522D02*
X031265Y007522D01*
X031265Y007443D02*
X033265Y007443D01*
X033265Y007365D02*
X031265Y007365D01*
X031265Y007286D02*
X033265Y007286D01*
X033265Y007208D02*
X031265Y007208D01*
X031265Y007129D02*
X033265Y007129D01*
X033265Y007051D02*
X031265Y007051D01*
X031265Y006972D02*
X033265Y006972D01*
X033265Y006894D02*
X031265Y006894D01*
X031265Y006815D02*
X033265Y006815D01*
X029390Y006815D02*
X027390Y006815D01*
X027390Y006765D02*
X027390Y008765D01*
X029390Y008765D01*
X029390Y006765D01*
X027390Y006765D01*
X027390Y006894D02*
X029390Y006894D01*
X029390Y006972D02*
X027390Y006972D01*
X027390Y007051D02*
X029390Y007051D01*
X029390Y007129D02*
X027390Y007129D01*
X027390Y007208D02*
X029390Y007208D01*
X029390Y007286D02*
X027390Y007286D01*
X027390Y007365D02*
X029390Y007365D01*
X029390Y007443D02*
X027390Y007443D01*
X027390Y007522D02*
X029390Y007522D01*
X029390Y007600D02*
X027390Y007600D01*
X027390Y007679D02*
X029390Y007679D01*
X029390Y007757D02*
X027390Y007757D01*
X027390Y007836D02*
X029390Y007836D01*
X029390Y007914D02*
X027390Y007914D01*
X027390Y007993D02*
X029390Y007993D01*
X029390Y008071D02*
X027390Y008071D01*
X027390Y008150D02*
X029390Y008150D01*
X029390Y008228D02*
X027390Y008228D01*
X027390Y008307D02*
X029390Y008307D01*
X029390Y008385D02*
X027390Y008385D01*
X027390Y008464D02*
X029390Y008464D01*
X029390Y008542D02*
X027390Y008542D01*
X027390Y008621D02*
X029390Y008621D01*
X029390Y008699D02*
X027390Y008699D01*
X027390Y009265D02*
X027390Y011265D01*
X029390Y011265D01*
X029390Y009265D01*
X027390Y009265D01*
X027390Y009327D02*
X029390Y009327D01*
X029390Y009406D02*
X027390Y009406D01*
X027390Y009484D02*
X029390Y009484D01*
X029390Y009563D02*
X027390Y009563D01*
X027390Y009641D02*
X029390Y009641D01*
X029390Y009720D02*
X027390Y009720D01*
X027390Y009798D02*
X029390Y009798D01*
X029390Y009877D02*
X027390Y009877D01*
X027390Y009955D02*
X029390Y009955D01*
X029390Y010034D02*
X027390Y010034D01*
X027390Y010112D02*
X029390Y010112D01*
X029390Y010191D02*
X027390Y010191D01*
X027390Y010269D02*
X029390Y010269D01*
X029390Y010348D02*
X027390Y010348D01*
X027390Y010426D02*
X029390Y010426D01*
X029390Y010505D02*
X027390Y010505D01*
X027390Y010583D02*
X029390Y010583D01*
X029390Y010662D02*
X027390Y010662D01*
X027390Y010740D02*
X029390Y010740D01*
X029390Y010819D02*
X027390Y010819D01*
X027390Y010897D02*
X029390Y010897D01*
X029390Y010976D02*
X027390Y010976D01*
X027390Y011054D02*
X029390Y011054D01*
X029390Y011133D02*
X027390Y011133D01*
X027390Y011211D02*
X029390Y011211D01*
X025515Y011211D02*
X023515Y011211D01*
X023515Y011265D02*
X023515Y009265D01*
X025515Y009265D01*
X025515Y011265D01*
X023515Y011265D01*
X023515Y011133D02*
X025515Y011133D01*
X025515Y011054D02*
X023515Y011054D01*
X023515Y010976D02*
X025515Y010976D01*
X025515Y010897D02*
X023515Y010897D01*
X023515Y010819D02*
X025515Y010819D01*
X025515Y010740D02*
X023515Y010740D01*
X023515Y010662D02*
X025515Y010662D01*
X025515Y010583D02*
X023515Y010583D01*
X023515Y010505D02*
X025515Y010505D01*
X025515Y010426D02*
X023515Y010426D01*
X023515Y010348D02*
X025515Y010348D01*
X025515Y010269D02*
X023515Y010269D01*
X023515Y010191D02*
X025515Y010191D01*
X025515Y010112D02*
X023515Y010112D01*
X023515Y010034D02*
X025515Y010034D01*
X025515Y009955D02*
X023515Y009955D01*
X023515Y009877D02*
X025515Y009877D01*
X025515Y009798D02*
X023515Y009798D01*
X023515Y009720D02*
X025515Y009720D01*
X025515Y009641D02*
X023515Y009641D01*
X023515Y009563D02*
X025515Y009563D01*
X025515Y009484D02*
X023515Y009484D01*
X023515Y009406D02*
X025515Y009406D01*
X025515Y009327D02*
X023515Y009327D01*
X023515Y008765D02*
X023515Y006765D01*
X025515Y006765D01*
X025515Y008765D01*
X023515Y008765D01*
X023515Y008699D02*
X025515Y008699D01*
X025515Y008621D02*
X023515Y008621D01*
X023515Y008542D02*
X025515Y008542D01*
X025515Y008464D02*
X023515Y008464D01*
X023515Y008385D02*
X025515Y008385D01*
X025515Y008307D02*
X023515Y008307D01*
X023515Y008228D02*
X025515Y008228D01*
X025515Y008150D02*
X023515Y008150D01*
X023515Y008071D02*
X025515Y008071D01*
X025515Y007993D02*
X023515Y007993D01*
X023515Y007914D02*
X025515Y007914D01*
X025515Y007836D02*
X023515Y007836D01*
X023515Y007757D02*
X025515Y007757D01*
X025515Y007679D02*
X023515Y007679D01*
X023515Y007600D02*
X025515Y007600D01*
X025515Y007522D02*
X023515Y007522D01*
X023515Y007443D02*
X025515Y007443D01*
X025515Y007365D02*
X023515Y007365D01*
X023515Y007286D02*
X025515Y007286D01*
X025515Y007208D02*
X023515Y007208D01*
X023515Y007129D02*
X025515Y007129D01*
X025515Y007051D02*
X023515Y007051D01*
X023515Y006972D02*
X025515Y006972D01*
X025515Y006894D02*
X023515Y006894D01*
X023515Y006815D02*
X025515Y006815D01*
X021640Y006815D02*
X019640Y006815D01*
X019640Y006765D02*
X019640Y008765D01*
X021640Y008765D01*
X021640Y006765D01*
X019640Y006765D01*
X019640Y006894D02*
X021640Y006894D01*
X021640Y006972D02*
X019640Y006972D01*
X019640Y007051D02*
X021640Y007051D01*
X021640Y007129D02*
X019640Y007129D01*
X019640Y007208D02*
X021640Y007208D01*
X021640Y007286D02*
X019640Y007286D01*
X019640Y007365D02*
X021640Y007365D01*
X021640Y007443D02*
X019640Y007443D01*
X019640Y007522D02*
X021640Y007522D01*
X021640Y007600D02*
X019640Y007600D01*
X019640Y007679D02*
X021640Y007679D01*
X021640Y007757D02*
X019640Y007757D01*
X019640Y007836D02*
X021640Y007836D01*
X021640Y007914D02*
X019640Y007914D01*
X019640Y007993D02*
X021640Y007993D01*
X021640Y008071D02*
X019640Y008071D01*
X019640Y008150D02*
X021640Y008150D01*
X021640Y008228D02*
X019640Y008228D01*
X019640Y008307D02*
X021640Y008307D01*
X021640Y008385D02*
X019640Y008385D01*
X019640Y008464D02*
X021640Y008464D01*
X021640Y008542D02*
X019640Y008542D01*
X019640Y008621D02*
X021640Y008621D01*
X021640Y008699D02*
X019640Y008699D01*
X019640Y009265D02*
X019640Y011265D01*
X021640Y011265D01*
X021640Y009265D01*
X019640Y009265D01*
X019640Y009327D02*
X021640Y009327D01*
X021640Y009406D02*
X019640Y009406D01*
X019640Y009484D02*
X021640Y009484D01*
X021640Y009563D02*
X019640Y009563D01*
X019640Y009641D02*
X021640Y009641D01*
X021640Y009720D02*
X019640Y009720D01*
X019640Y009798D02*
X021640Y009798D01*
X021640Y009877D02*
X019640Y009877D01*
X019640Y009955D02*
X021640Y009955D01*
X021640Y010034D02*
X019640Y010034D01*
X019640Y010112D02*
X021640Y010112D01*
X021640Y010191D02*
X019640Y010191D01*
X019640Y010269D02*
X021640Y010269D01*
X021640Y010348D02*
X019640Y010348D01*
X019640Y010426D02*
X021640Y010426D01*
X021640Y010505D02*
X019640Y010505D01*
X019640Y010583D02*
X021640Y010583D01*
X021640Y010662D02*
X019640Y010662D01*
X019640Y010740D02*
X021640Y010740D01*
X021640Y010819D02*
X019640Y010819D01*
X019640Y010897D02*
X021640Y010897D01*
X021640Y010976D02*
X019640Y010976D01*
X019640Y011054D02*
X021640Y011054D01*
X021640Y011133D02*
X019640Y011133D01*
X019640Y011211D02*
X021640Y011211D01*
X017765Y011211D02*
X015765Y011211D01*
X015765Y011265D02*
X015765Y009265D01*
X017765Y009265D01*
X017765Y011265D01*
X015765Y011265D01*
X015765Y011133D02*
X017765Y011133D01*
X017765Y011054D02*
X015765Y011054D01*
X015765Y010976D02*
X017765Y010976D01*
X017765Y010897D02*
X015765Y010897D01*
X015765Y010819D02*
X017765Y010819D01*
X017765Y010740D02*
X015765Y010740D01*
X015765Y010662D02*
X017765Y010662D01*
X017765Y010583D02*
X015765Y010583D01*
X015765Y010505D02*
X017765Y010505D01*
X017765Y010426D02*
X015765Y010426D01*
X015765Y010348D02*
X017765Y010348D01*
X017765Y010269D02*
X015765Y010269D01*
X015765Y010191D02*
X017765Y010191D01*
X017765Y010112D02*
X015765Y010112D01*
X015765Y010034D02*
X017765Y010034D01*
X017765Y009955D02*
X015765Y009955D01*
X015765Y009877D02*
X017765Y009877D01*
X017765Y009798D02*
X015765Y009798D01*
X015765Y009720D02*
X017765Y009720D01*
X017765Y009641D02*
X015765Y009641D01*
X015765Y009563D02*
X017765Y009563D01*
X017765Y009484D02*
X015765Y009484D01*
X015765Y009406D02*
X017765Y009406D01*
X017765Y009327D02*
X015765Y009327D01*
X015765Y008765D02*
X015765Y006765D01*
X017765Y006765D01*
X017765Y008765D01*
X015765Y008765D01*
X015765Y008699D02*
X017765Y008699D01*
X017765Y008621D02*
X015765Y008621D01*
X015765Y008542D02*
X017765Y008542D01*
X017765Y008464D02*
X015765Y008464D01*
X015765Y008385D02*
X017765Y008385D01*
X017765Y008307D02*
X015765Y008307D01*
X015765Y008228D02*
X017765Y008228D01*
X017765Y008150D02*
X015765Y008150D01*
X015765Y008071D02*
X017765Y008071D01*
X017765Y007993D02*
X015765Y007993D01*
X015765Y007914D02*
X017765Y007914D01*
X017765Y007836D02*
X015765Y007836D01*
X015765Y007757D02*
X017765Y007757D01*
X017765Y007679D02*
X015765Y007679D01*
X015765Y007600D02*
X017765Y007600D01*
X017765Y007522D02*
X015765Y007522D01*
X015765Y007443D02*
X017765Y007443D01*
X017765Y007365D02*
X015765Y007365D01*
X015765Y007286D02*
X017765Y007286D01*
X017765Y007208D02*
X015765Y007208D01*
X015765Y007129D02*
X017765Y007129D01*
X017765Y007051D02*
X015765Y007051D01*
X015765Y006972D02*
X017765Y006972D01*
X017765Y006894D02*
X015765Y006894D01*
X015765Y006815D02*
X017765Y006815D01*
X013890Y006815D02*
X011890Y006815D01*
X011890Y006765D02*
X011890Y008765D01*
X013890Y008765D01*
X013890Y006765D01*
X011890Y006765D01*
X011890Y006894D02*
X013890Y006894D01*
X013890Y006972D02*
X011890Y006972D01*
X011890Y007051D02*
X013890Y007051D01*
X013890Y007129D02*
X011890Y007129D01*
X011890Y007208D02*
X013890Y007208D01*
X013890Y007286D02*
X011890Y007286D01*
X011890Y007365D02*
X013890Y007365D01*
X013890Y007443D02*
X011890Y007443D01*
X011890Y007522D02*
X013890Y007522D01*
X013890Y007600D02*
X011890Y007600D01*
X011890Y007679D02*
X013890Y007679D01*
X013890Y007757D02*
X011890Y007757D01*
X011890Y007836D02*
X013890Y007836D01*
X013890Y007914D02*
X011890Y007914D01*
X011890Y007993D02*
X013890Y007993D01*
X013890Y008071D02*
X011890Y008071D01*
X011890Y008150D02*
X013890Y008150D01*
X013890Y008228D02*
X011890Y008228D01*
X011890Y008307D02*
X013890Y008307D01*
X013890Y008385D02*
X011890Y008385D01*
X011890Y008464D02*
X013890Y008464D01*
X013890Y008542D02*
X011890Y008542D01*
X011890Y008621D02*
X013890Y008621D01*
X013890Y008699D02*
X011890Y008699D01*
X011890Y009265D02*
X011890Y011265D01*
X013890Y011265D01*
X013890Y009265D01*
X011890Y009265D01*
X011890Y009327D02*
X013890Y009327D01*
X013890Y009406D02*
X011890Y009406D01*
X011890Y009484D02*
X013890Y009484D01*
X013890Y009563D02*
X011890Y009563D01*
X011890Y009641D02*
X013890Y009641D01*
X013890Y009720D02*
X011890Y009720D01*
X011890Y009798D02*
X013890Y009798D01*
X013890Y009877D02*
X011890Y009877D01*
X011890Y009955D02*
X013890Y009955D01*
X013890Y010034D02*
X011890Y010034D01*
X011890Y010112D02*
X013890Y010112D01*
X013890Y010191D02*
X011890Y010191D01*
X011890Y010269D02*
X013890Y010269D01*
X013890Y010348D02*
X011890Y010348D01*
X011890Y010426D02*
X013890Y010426D01*
X013890Y010505D02*
X011890Y010505D01*
X011890Y010583D02*
X013890Y010583D01*
X013890Y010662D02*
X011890Y010662D01*
X011890Y010740D02*
X013890Y010740D01*
X013890Y010819D02*
X011890Y010819D01*
X011890Y010897D02*
X013890Y010897D01*
X013890Y010976D02*
X011890Y010976D01*
X011890Y011054D02*
X013890Y011054D01*
X013890Y011133D02*
X011890Y011133D01*
X011890Y011211D02*
X013890Y011211D01*
X024015Y015015D02*
X024015Y019265D01*
X025390Y019265D01*
X025390Y015015D01*
X024015Y015015D01*
X024015Y015058D02*
X025390Y015058D01*
X025390Y015136D02*
X024015Y015136D01*
X024015Y015215D02*
X025390Y015215D01*
X025390Y015293D02*
X024015Y015293D01*
X024015Y015372D02*
X025390Y015372D01*
X025390Y015450D02*
X024015Y015450D01*
X024015Y015529D02*
X025390Y015529D01*
X025390Y015607D02*
X024015Y015607D01*
X024015Y015686D02*
X025390Y015686D01*
X025390Y015764D02*
X024015Y015764D01*
X024015Y015843D02*
X025390Y015843D01*
X025390Y015921D02*
X024015Y015921D01*
X024015Y016000D02*
X025390Y016000D01*
X025390Y016078D02*
X024015Y016078D01*
X024015Y016157D02*
X025390Y016157D01*
X025390Y016235D02*
X024015Y016235D01*
X024015Y016314D02*
X025390Y016314D01*
X025390Y016392D02*
X024015Y016392D01*
X024015Y016471D02*
X025390Y016471D01*
X025390Y016549D02*
X024015Y016549D01*
X024015Y016628D02*
X025390Y016628D01*
X025390Y016706D02*
X024015Y016706D01*
X024015Y016785D02*
X025390Y016785D01*
X025390Y016863D02*
X024015Y016863D01*
X024015Y016942D02*
X025390Y016942D01*
X025390Y017020D02*
X024015Y017020D01*
X024015Y017099D02*
X025390Y017099D01*
X025390Y017177D02*
X024015Y017177D01*
X024015Y017256D02*
X025390Y017256D01*
X025390Y017334D02*
X024015Y017334D01*
X024015Y017413D02*
X025390Y017413D01*
X025390Y017491D02*
X024015Y017491D01*
X024015Y017570D02*
X025390Y017570D01*
X025390Y017648D02*
X024015Y017648D01*
X024015Y017727D02*
X025390Y017727D01*
X025390Y017805D02*
X024015Y017805D01*
X024015Y017884D02*
X025390Y017884D01*
X025390Y017962D02*
X024015Y017962D01*
X024015Y018041D02*
X025390Y018041D01*
X025390Y018119D02*
X024015Y018119D01*
X024015Y018198D02*
X025390Y018198D01*
X025390Y018276D02*
X024015Y018276D01*
X024015Y018355D02*
X025390Y018355D01*
X025390Y018433D02*
X024015Y018433D01*
X024015Y018512D02*
X025390Y018512D01*
X025390Y018590D02*
X024015Y018590D01*
X024015Y018669D02*
X025390Y018669D01*
X025390Y018747D02*
X024015Y018747D01*
X024015Y018826D02*
X025390Y018826D01*
X025390Y018904D02*
X024015Y018904D01*
X024015Y018983D02*
X025390Y018983D01*
X025390Y019061D02*
X024015Y019061D01*
X024015Y019140D02*
X025390Y019140D01*
X025390Y019218D02*
X024015Y019218D01*
X047640Y011265D02*
X047640Y009265D01*
X049640Y009265D01*
X049640Y011265D01*
X047640Y011265D01*
X047640Y011211D02*
X049640Y011211D01*
X049640Y011133D02*
X047640Y011133D01*
X047640Y011054D02*
X049640Y011054D01*
X049640Y010976D02*
X047640Y010976D01*
X047640Y010897D02*
X049640Y010897D01*
X049640Y010819D02*
X047640Y010819D01*
X047640Y010740D02*
X049640Y010740D01*
X049640Y010662D02*
X047640Y010662D01*
X047640Y010583D02*
X049640Y010583D01*
X049640Y010505D02*
X047640Y010505D01*
X047640Y010426D02*
X049640Y010426D01*
X049640Y010348D02*
X047640Y010348D01*
X047640Y010269D02*
X049640Y010269D01*
X049640Y010191D02*
X047640Y010191D01*
X047640Y010112D02*
X049640Y010112D01*
X049640Y010034D02*
X047640Y010034D01*
X047640Y009955D02*
X049640Y009955D01*
X049640Y009877D02*
X047640Y009877D01*
X047640Y009798D02*
X049640Y009798D01*
X049640Y009720D02*
X047640Y009720D01*
X047640Y009641D02*
X049640Y009641D01*
X049640Y009563D02*
X047640Y009563D01*
X047640Y009484D02*
X049640Y009484D01*
X049640Y009406D02*
X047640Y009406D01*
X047640Y009327D02*
X049640Y009327D01*
X049640Y008765D02*
X047640Y008765D01*
X047640Y006765D01*
X049640Y006765D01*
X049640Y008765D01*
X049640Y008699D02*
X047640Y008699D01*
X047640Y008621D02*
X049640Y008621D01*
X049640Y008542D02*
X047640Y008542D01*
X047640Y008464D02*
X049640Y008464D01*
X049640Y008385D02*
X047640Y008385D01*
X047640Y008307D02*
X049640Y008307D01*
X049640Y008228D02*
X047640Y008228D01*
X047640Y008150D02*
X049640Y008150D01*
X049640Y008071D02*
X047640Y008071D01*
X047640Y007993D02*
X049640Y007993D01*
X049640Y007914D02*
X047640Y007914D01*
X047640Y007836D02*
X049640Y007836D01*
X049640Y007757D02*
X047640Y007757D01*
X047640Y007679D02*
X049640Y007679D01*
X049640Y007600D02*
X047640Y007600D01*
X047640Y007522D02*
X049640Y007522D01*
X049640Y007443D02*
X047640Y007443D01*
X047640Y007365D02*
X049640Y007365D01*
X049640Y007286D02*
X047640Y007286D01*
X047640Y007208D02*
X049640Y007208D01*
X049640Y007129D02*
X047640Y007129D01*
X047640Y007051D02*
X049640Y007051D01*
X049640Y006972D02*
X047640Y006972D01*
X047640Y006894D02*
X049640Y006894D01*
X049640Y006815D02*
X047640Y006815D01*
X047640Y006390D02*
X047640Y006015D01*
X077140Y006015D01*
X078790Y007665D01*
X078790Y011890D01*
X078265Y011890D01*
X078265Y007890D01*
X076765Y006390D01*
X047640Y006390D01*
X047640Y006344D02*
X077469Y006344D01*
X077391Y006266D02*
X047640Y006266D01*
X047640Y006187D02*
X077312Y006187D01*
X077234Y006109D02*
X047640Y006109D01*
X047640Y006030D02*
X077155Y006030D01*
X076798Y006423D02*
X077548Y006423D01*
X077626Y006501D02*
X076876Y006501D01*
X076955Y006580D02*
X077705Y006580D01*
X077783Y006658D02*
X077033Y006658D01*
X077112Y006737D02*
X077862Y006737D01*
X077940Y006815D02*
X077190Y006815D01*
X077269Y006894D02*
X078019Y006894D01*
X078097Y006972D02*
X077347Y006972D01*
X077426Y007051D02*
X078176Y007051D01*
X078254Y007129D02*
X077504Y007129D01*
X077583Y007208D02*
X078333Y007208D01*
X078411Y007286D02*
X077661Y007286D01*
X077740Y007365D02*
X078490Y007365D01*
X078568Y007443D02*
X077818Y007443D01*
X077897Y007522D02*
X078647Y007522D01*
X078725Y007600D02*
X077975Y007600D01*
X078054Y007679D02*
X078790Y007679D01*
X078790Y007757D02*
X078132Y007757D01*
X078211Y007836D02*
X078790Y007836D01*
X078790Y007914D02*
X078265Y007914D01*
X078265Y007993D02*
X078790Y007993D01*
X078790Y008071D02*
X078265Y008071D01*
X078265Y008150D02*
X078790Y008150D01*
X078790Y008228D02*
X078265Y008228D01*
X078265Y008307D02*
X078790Y008307D01*
X078790Y008385D02*
X078265Y008385D01*
X078265Y008464D02*
X078790Y008464D01*
X078790Y008542D02*
X078265Y008542D01*
X078265Y008621D02*
X078790Y008621D01*
X078790Y008699D02*
X078265Y008699D01*
X078265Y008778D02*
X078790Y008778D01*
X078790Y008856D02*
X078265Y008856D01*
X078265Y008935D02*
X078790Y008935D01*
X078790Y009013D02*
X078265Y009013D01*
X078265Y009092D02*
X078790Y009092D01*
X078790Y009170D02*
X078265Y009170D01*
X078265Y009249D02*
X078790Y009249D01*
X078790Y009327D02*
X078265Y009327D01*
X078265Y009406D02*
X078790Y009406D01*
X078790Y009484D02*
X078265Y009484D01*
X078265Y009563D02*
X078790Y009563D01*
X078790Y009641D02*
X078265Y009641D01*
X078265Y009720D02*
X078790Y009720D01*
X078790Y009798D02*
X078265Y009798D01*
X078265Y009877D02*
X078790Y009877D01*
X078790Y009955D02*
X078265Y009955D01*
X078265Y010034D02*
X078790Y010034D01*
X078790Y010112D02*
X078265Y010112D01*
X078265Y010191D02*
X078790Y010191D01*
X078790Y010269D02*
X078265Y010269D01*
X078265Y010348D02*
X078790Y010348D01*
X078790Y010426D02*
X078265Y010426D01*
X078265Y010505D02*
X078790Y010505D01*
X078790Y010583D02*
X078265Y010583D01*
X078265Y010662D02*
X078790Y010662D01*
X078790Y010740D02*
X078265Y010740D01*
X078265Y010819D02*
X078790Y010819D01*
X078790Y010897D02*
X078265Y010897D01*
X078265Y010976D02*
X078790Y010976D01*
X078790Y011054D02*
X078265Y011054D01*
X078265Y011133D02*
X078790Y011133D01*
X078790Y011211D02*
X078265Y011211D01*
X078265Y011290D02*
X078790Y011290D01*
X078790Y011368D02*
X078265Y011368D01*
X078265Y011447D02*
X078790Y011447D01*
X078790Y011525D02*
X078265Y011525D01*
X078265Y011604D02*
X078790Y011604D01*
X078790Y011682D02*
X078265Y011682D01*
X078265Y011761D02*
X078790Y011761D01*
X078790Y011839D02*
X078265Y011839D01*
X076765Y011265D02*
X076765Y009265D01*
X074765Y009265D01*
X074765Y011265D01*
X076765Y011265D01*
X076765Y011211D02*
X074765Y011211D01*
X074765Y011133D02*
X076765Y011133D01*
X076765Y011054D02*
X074765Y011054D01*
X074765Y010976D02*
X076765Y010976D01*
X076765Y010897D02*
X074765Y010897D01*
X074765Y010819D02*
X076765Y010819D01*
X076765Y010740D02*
X074765Y010740D01*
X074765Y010662D02*
X076765Y010662D01*
X076765Y010583D02*
X074765Y010583D01*
X074765Y010505D02*
X076765Y010505D01*
X076765Y010426D02*
X074765Y010426D01*
X074765Y010348D02*
X076765Y010348D01*
X076765Y010269D02*
X074765Y010269D01*
X074765Y010191D02*
X076765Y010191D01*
X076765Y010112D02*
X074765Y010112D01*
X074765Y010034D02*
X076765Y010034D01*
X076765Y009955D02*
X074765Y009955D01*
X074765Y009877D02*
X076765Y009877D01*
X076765Y009798D02*
X074765Y009798D01*
X074765Y009720D02*
X076765Y009720D01*
X076765Y009641D02*
X074765Y009641D01*
X074765Y009563D02*
X076765Y009563D01*
X076765Y009484D02*
X074765Y009484D01*
X074765Y009406D02*
X076765Y009406D01*
X076765Y009327D02*
X074765Y009327D01*
X074765Y008765D02*
X074765Y006765D01*
X076371Y006765D01*
X076765Y007159D01*
X076765Y008765D01*
X074765Y008765D01*
X074765Y008699D02*
X076765Y008699D01*
X076765Y008621D02*
X074765Y008621D01*
X074765Y008542D02*
X076765Y008542D01*
X076765Y008464D02*
X074765Y008464D01*
X074765Y008385D02*
X076765Y008385D01*
X076765Y008307D02*
X074765Y008307D01*
X074765Y008228D02*
X076765Y008228D01*
X076765Y008150D02*
X074765Y008150D01*
X074765Y008071D02*
X076765Y008071D01*
X076765Y007993D02*
X074765Y007993D01*
X074765Y007914D02*
X076765Y007914D01*
X076765Y007836D02*
X074765Y007836D01*
X074765Y007757D02*
X076765Y007757D01*
X076765Y007679D02*
X074765Y007679D01*
X074765Y007600D02*
X076765Y007600D01*
X076765Y007522D02*
X074765Y007522D01*
X074765Y007443D02*
X076765Y007443D01*
X076765Y007365D02*
X074765Y007365D01*
X074765Y007286D02*
X076765Y007286D01*
X076765Y007208D02*
X074765Y007208D01*
X074765Y007129D02*
X076735Y007129D01*
X076657Y007051D02*
X074765Y007051D01*
X074765Y006972D02*
X076578Y006972D01*
X076500Y006894D02*
X074765Y006894D01*
X074765Y006815D02*
X076421Y006815D01*
X072890Y006815D02*
X070890Y006815D01*
X070890Y006765D02*
X070890Y008765D01*
X072890Y008765D01*
X072890Y006765D01*
X070890Y006765D01*
X070890Y006894D02*
X072890Y006894D01*
X072890Y006972D02*
X070890Y006972D01*
X070890Y007051D02*
X072890Y007051D01*
X072890Y007129D02*
X070890Y007129D01*
X070890Y007208D02*
X072890Y007208D01*
X072890Y007286D02*
X070890Y007286D01*
X070890Y007365D02*
X072890Y007365D01*
X072890Y007443D02*
X070890Y007443D01*
X070890Y007522D02*
X072890Y007522D01*
X072890Y007600D02*
X070890Y007600D01*
X070890Y007679D02*
X072890Y007679D01*
X072890Y007757D02*
X070890Y007757D01*
X070890Y007836D02*
X072890Y007836D01*
X072890Y007914D02*
X070890Y007914D01*
X070890Y007993D02*
X072890Y007993D01*
X072890Y008071D02*
X070890Y008071D01*
X070890Y008150D02*
X072890Y008150D01*
X072890Y008228D02*
X070890Y008228D01*
X070890Y008307D02*
X072890Y008307D01*
X072890Y008385D02*
X070890Y008385D01*
X070890Y008464D02*
X072890Y008464D01*
X072890Y008542D02*
X070890Y008542D01*
X070890Y008621D02*
X072890Y008621D01*
X072890Y008699D02*
X070890Y008699D01*
X070890Y009265D02*
X070890Y011265D01*
X072890Y011265D01*
X072890Y009265D01*
X070890Y009265D01*
X070890Y009327D02*
X072890Y009327D01*
X072890Y009406D02*
X070890Y009406D01*
X070890Y009484D02*
X072890Y009484D01*
X072890Y009563D02*
X070890Y009563D01*
X070890Y009641D02*
X072890Y009641D01*
X072890Y009720D02*
X070890Y009720D01*
X070890Y009798D02*
X072890Y009798D01*
X072890Y009877D02*
X070890Y009877D01*
X070890Y009955D02*
X072890Y009955D01*
X072890Y010034D02*
X070890Y010034D01*
X070890Y010112D02*
X072890Y010112D01*
X072890Y010191D02*
X070890Y010191D01*
X070890Y010269D02*
X072890Y010269D01*
X072890Y010348D02*
X070890Y010348D01*
X070890Y010426D02*
X072890Y010426D01*
X072890Y010505D02*
X070890Y010505D01*
X070890Y010583D02*
X072890Y010583D01*
X072890Y010662D02*
X070890Y010662D01*
X070890Y010740D02*
X072890Y010740D01*
X072890Y010819D02*
X070890Y010819D01*
X070890Y010897D02*
X072890Y010897D01*
X072890Y010976D02*
X070890Y010976D01*
X070890Y011054D02*
X072890Y011054D01*
X072890Y011133D02*
X070890Y011133D01*
X070890Y011211D02*
X072890Y011211D01*
X069015Y011211D02*
X067015Y011211D01*
X067015Y011265D02*
X067015Y009265D01*
X069015Y009265D01*
X069015Y011265D01*
X067015Y011265D01*
X067015Y011133D02*
X069015Y011133D01*
X069015Y011054D02*
X067015Y011054D01*
X067015Y010976D02*
X069015Y010976D01*
X069015Y010897D02*
X067015Y010897D01*
X067015Y010819D02*
X069015Y010819D01*
X069015Y010740D02*
X067015Y010740D01*
X067015Y010662D02*
X069015Y010662D01*
X069015Y010583D02*
X067015Y010583D01*
X067015Y010505D02*
X069015Y010505D01*
X069015Y010426D02*
X067015Y010426D01*
X067015Y010348D02*
X069015Y010348D01*
X069015Y010269D02*
X067015Y010269D01*
X067015Y010191D02*
X069015Y010191D01*
X069015Y010112D02*
X067015Y010112D01*
X067015Y010034D02*
X069015Y010034D01*
X069015Y009955D02*
X067015Y009955D01*
X067015Y009877D02*
X069015Y009877D01*
X069015Y009798D02*
X067015Y009798D01*
X067015Y009720D02*
X069015Y009720D01*
X069015Y009641D02*
X067015Y009641D01*
X067015Y009563D02*
X069015Y009563D01*
X069015Y009484D02*
X067015Y009484D01*
X067015Y009406D02*
X069015Y009406D01*
X069015Y009327D02*
X067015Y009327D01*
X067015Y008765D02*
X067015Y006765D01*
X069015Y006765D01*
X069015Y008765D01*
X067015Y008765D01*
X067015Y008699D02*
X069015Y008699D01*
X069015Y008621D02*
X067015Y008621D01*
X067015Y008542D02*
X069015Y008542D01*
X069015Y008464D02*
X067015Y008464D01*
X067015Y008385D02*
X069015Y008385D01*
X069015Y008307D02*
X067015Y008307D01*
X067015Y008228D02*
X069015Y008228D01*
X069015Y008150D02*
X067015Y008150D01*
X067015Y008071D02*
X069015Y008071D01*
X069015Y007993D02*
X067015Y007993D01*
X067015Y007914D02*
X069015Y007914D01*
X069015Y007836D02*
X067015Y007836D01*
X067015Y007757D02*
X069015Y007757D01*
X069015Y007679D02*
X067015Y007679D01*
X067015Y007600D02*
X069015Y007600D01*
X069015Y007522D02*
X067015Y007522D01*
X067015Y007443D02*
X069015Y007443D01*
X069015Y007365D02*
X067015Y007365D01*
X067015Y007286D02*
X069015Y007286D01*
X069015Y007208D02*
X067015Y007208D01*
X067015Y007129D02*
X069015Y007129D01*
X069015Y007051D02*
X067015Y007051D01*
X067015Y006972D02*
X069015Y006972D01*
X069015Y006894D02*
X067015Y006894D01*
X067015Y006815D02*
X069015Y006815D01*
X065140Y006815D02*
X063140Y006815D01*
X063140Y006765D02*
X063140Y008765D01*
X065140Y008765D01*
X065140Y006765D01*
X063140Y006765D01*
X063140Y006894D02*
X065140Y006894D01*
X065140Y006972D02*
X063140Y006972D01*
X063140Y007051D02*
X065140Y007051D01*
X065140Y007129D02*
X063140Y007129D01*
X063140Y007208D02*
X065140Y007208D01*
X065140Y007286D02*
X063140Y007286D01*
X063140Y007365D02*
X065140Y007365D01*
X065140Y007443D02*
X063140Y007443D01*
X063140Y007522D02*
X065140Y007522D01*
X065140Y007600D02*
X063140Y007600D01*
X063140Y007679D02*
X065140Y007679D01*
X065140Y007757D02*
X063140Y007757D01*
X063140Y007836D02*
X065140Y007836D01*
X065140Y007914D02*
X063140Y007914D01*
X063140Y007993D02*
X065140Y007993D01*
X065140Y008071D02*
X063140Y008071D01*
X063140Y008150D02*
X065140Y008150D01*
X065140Y008228D02*
X063140Y008228D01*
X063140Y008307D02*
X065140Y008307D01*
X065140Y008385D02*
X063140Y008385D01*
X063140Y008464D02*
X065140Y008464D01*
X065140Y008542D02*
X063140Y008542D01*
X063140Y008621D02*
X065140Y008621D01*
X065140Y008699D02*
X063140Y008699D01*
X063140Y009265D02*
X063140Y011265D01*
X065140Y011265D01*
X065140Y009265D01*
X063140Y009265D01*
X063140Y009327D02*
X065140Y009327D01*
X065140Y009406D02*
X063140Y009406D01*
X063140Y009484D02*
X065140Y009484D01*
X065140Y009563D02*
X063140Y009563D01*
X063140Y009641D02*
X065140Y009641D01*
X065140Y009720D02*
X063140Y009720D01*
X063140Y009798D02*
X065140Y009798D01*
X065140Y009877D02*
X063140Y009877D01*
X063140Y009955D02*
X065140Y009955D01*
X065140Y010034D02*
X063140Y010034D01*
X063140Y010112D02*
X065140Y010112D01*
X065140Y010191D02*
X063140Y010191D01*
X063140Y010269D02*
X065140Y010269D01*
X065140Y010348D02*
X063140Y010348D01*
X063140Y010426D02*
X065140Y010426D01*
X065140Y010505D02*
X063140Y010505D01*
X063140Y010583D02*
X065140Y010583D01*
X065140Y010662D02*
X063140Y010662D01*
X063140Y010740D02*
X065140Y010740D01*
X065140Y010819D02*
X063140Y010819D01*
X063140Y010897D02*
X065140Y010897D01*
X065140Y010976D02*
X063140Y010976D01*
X063140Y011054D02*
X065140Y011054D01*
X065140Y011133D02*
X063140Y011133D01*
X063140Y011211D02*
X065140Y011211D01*
X061265Y011211D02*
X059265Y011211D01*
X059265Y011265D02*
X059265Y009265D01*
X061265Y009265D01*
X061265Y011265D01*
X059265Y011265D01*
X059265Y011133D02*
X061265Y011133D01*
X061265Y011054D02*
X059265Y011054D01*
X059265Y010976D02*
X061265Y010976D01*
X061265Y010897D02*
X059265Y010897D01*
X059265Y010819D02*
X061265Y010819D01*
X061265Y010740D02*
X059265Y010740D01*
X059265Y010662D02*
X061265Y010662D01*
X061265Y010583D02*
X059265Y010583D01*
X059265Y010505D02*
X061265Y010505D01*
X061265Y010426D02*
X059265Y010426D01*
X059265Y010348D02*
X061265Y010348D01*
X061265Y010269D02*
X059265Y010269D01*
X059265Y010191D02*
X061265Y010191D01*
X061265Y010112D02*
X059265Y010112D01*
X059265Y010034D02*
X061265Y010034D01*
X061265Y009955D02*
X059265Y009955D01*
X059265Y009877D02*
X061265Y009877D01*
X061265Y009798D02*
X059265Y009798D01*
X059265Y009720D02*
X061265Y009720D01*
X061265Y009641D02*
X059265Y009641D01*
X059265Y009563D02*
X061265Y009563D01*
X061265Y009484D02*
X059265Y009484D01*
X059265Y009406D02*
X061265Y009406D01*
X061265Y009327D02*
X059265Y009327D01*
X059265Y008765D02*
X059265Y006765D01*
X061265Y006765D01*
X061265Y008765D01*
X059265Y008765D01*
X059265Y008699D02*
X061265Y008699D01*
X061265Y008621D02*
X059265Y008621D01*
X059265Y008542D02*
X061265Y008542D01*
X061265Y008464D02*
X059265Y008464D01*
X059265Y008385D02*
X061265Y008385D01*
X061265Y008307D02*
X059265Y008307D01*
X059265Y008228D02*
X061265Y008228D01*
X061265Y008150D02*
X059265Y008150D01*
X059265Y008071D02*
X061265Y008071D01*
X061265Y007993D02*
X059265Y007993D01*
X059265Y007914D02*
X061265Y007914D01*
X061265Y007836D02*
X059265Y007836D01*
X059265Y007757D02*
X061265Y007757D01*
X061265Y007679D02*
X059265Y007679D01*
X059265Y007600D02*
X061265Y007600D01*
X061265Y007522D02*
X059265Y007522D01*
X059265Y007443D02*
X061265Y007443D01*
X061265Y007365D02*
X059265Y007365D01*
X059265Y007286D02*
X061265Y007286D01*
X061265Y007208D02*
X059265Y007208D01*
X059265Y007129D02*
X061265Y007129D01*
X061265Y007051D02*
X059265Y007051D01*
X059265Y006972D02*
X061265Y006972D01*
X061265Y006894D02*
X059265Y006894D01*
X059265Y006815D02*
X061265Y006815D01*
X057390Y006815D02*
X055390Y006815D01*
X055390Y006765D02*
X055390Y008765D01*
X057390Y008765D01*
X057390Y006765D01*
X055390Y006765D01*
X055390Y006894D02*
X057390Y006894D01*
X057390Y006972D02*
X055390Y006972D01*
X055390Y007051D02*
X057390Y007051D01*
X057390Y007129D02*
X055390Y007129D01*
X055390Y007208D02*
X057390Y007208D01*
X057390Y007286D02*
X055390Y007286D01*
X055390Y007365D02*
X057390Y007365D01*
X057390Y007443D02*
X055390Y007443D01*
X055390Y007522D02*
X057390Y007522D01*
X057390Y007600D02*
X055390Y007600D01*
X055390Y007679D02*
X057390Y007679D01*
X057390Y007757D02*
X055390Y007757D01*
X055390Y007836D02*
X057390Y007836D01*
X057390Y007914D02*
X055390Y007914D01*
X055390Y007993D02*
X057390Y007993D01*
X057390Y008071D02*
X055390Y008071D01*
X055390Y008150D02*
X057390Y008150D01*
X057390Y008228D02*
X055390Y008228D01*
X055390Y008307D02*
X057390Y008307D01*
X057390Y008385D02*
X055390Y008385D01*
X055390Y008464D02*
X057390Y008464D01*
X057390Y008542D02*
X055390Y008542D01*
X055390Y008621D02*
X057390Y008621D01*
X057390Y008699D02*
X055390Y008699D01*
X055390Y009265D02*
X055390Y011265D01*
X057390Y011265D01*
X057390Y009265D01*
X055390Y009265D01*
X055390Y009327D02*
X057390Y009327D01*
X057390Y009406D02*
X055390Y009406D01*
X055390Y009484D02*
X057390Y009484D01*
X057390Y009563D02*
X055390Y009563D01*
X055390Y009641D02*
X057390Y009641D01*
X057390Y009720D02*
X055390Y009720D01*
X055390Y009798D02*
X057390Y009798D01*
X057390Y009877D02*
X055390Y009877D01*
X055390Y009955D02*
X057390Y009955D01*
X057390Y010034D02*
X055390Y010034D01*
X055390Y010112D02*
X057390Y010112D01*
X057390Y010191D02*
X055390Y010191D01*
X055390Y010269D02*
X057390Y010269D01*
X057390Y010348D02*
X055390Y010348D01*
X055390Y010426D02*
X057390Y010426D01*
X057390Y010505D02*
X055390Y010505D01*
X055390Y010583D02*
X057390Y010583D01*
X057390Y010662D02*
X055390Y010662D01*
X055390Y010740D02*
X057390Y010740D01*
X057390Y010819D02*
X055390Y010819D01*
X055390Y010897D02*
X057390Y010897D01*
X057390Y010976D02*
X055390Y010976D01*
X055390Y011054D02*
X057390Y011054D01*
X057390Y011133D02*
X055390Y011133D01*
X055390Y011211D02*
X057390Y011211D01*
X053515Y011211D02*
X051515Y011211D01*
X051515Y011265D02*
X051515Y009265D01*
X053515Y009265D01*
X053515Y011265D01*
X051515Y011265D01*
X051515Y011133D02*
X053515Y011133D01*
X053515Y011054D02*
X051515Y011054D01*
X051515Y010976D02*
X053515Y010976D01*
X053515Y010897D02*
X051515Y010897D01*
X051515Y010819D02*
X053515Y010819D01*
X053515Y010740D02*
X051515Y010740D01*
X051515Y010662D02*
X053515Y010662D01*
X053515Y010583D02*
X051515Y010583D01*
X051515Y010505D02*
X053515Y010505D01*
X053515Y010426D02*
X051515Y010426D01*
X051515Y010348D02*
X053515Y010348D01*
X053515Y010269D02*
X051515Y010269D01*
X051515Y010191D02*
X053515Y010191D01*
X053515Y010112D02*
X051515Y010112D01*
X051515Y010034D02*
X053515Y010034D01*
X053515Y009955D02*
X051515Y009955D01*
X051515Y009877D02*
X053515Y009877D01*
X053515Y009798D02*
X051515Y009798D01*
X051515Y009720D02*
X053515Y009720D01*
X053515Y009641D02*
X051515Y009641D01*
X051515Y009563D02*
X053515Y009563D01*
X053515Y009484D02*
X051515Y009484D01*
X051515Y009406D02*
X053515Y009406D01*
X053515Y009327D02*
X051515Y009327D01*
X051515Y008765D02*
X051515Y006765D01*
X053515Y006765D01*
X053515Y008765D01*
X051515Y008765D01*
X051515Y008699D02*
X053515Y008699D01*
X053515Y008621D02*
X051515Y008621D01*
X051515Y008542D02*
X053515Y008542D01*
X053515Y008464D02*
X051515Y008464D01*
X051515Y008385D02*
X053515Y008385D01*
X053515Y008307D02*
X051515Y008307D01*
X051515Y008228D02*
X053515Y008228D01*
X053515Y008150D02*
X051515Y008150D01*
X051515Y008071D02*
X053515Y008071D01*
X053515Y007993D02*
X051515Y007993D01*
X051515Y007914D02*
X053515Y007914D01*
X053515Y007836D02*
X051515Y007836D01*
X051515Y007757D02*
X053515Y007757D01*
X053515Y007679D02*
X051515Y007679D01*
X051515Y007600D02*
X053515Y007600D01*
X053515Y007522D02*
X051515Y007522D01*
X051515Y007443D02*
X053515Y007443D01*
X053515Y007365D02*
X051515Y007365D01*
X051515Y007286D02*
X053515Y007286D01*
X053515Y007208D02*
X051515Y007208D01*
X051515Y007129D02*
X053515Y007129D01*
X053515Y007051D02*
X051515Y007051D01*
X051515Y006972D02*
X053515Y006972D01*
X053515Y006894D02*
X051515Y006894D01*
X051515Y006815D02*
X053515Y006815D01*
X059515Y015015D02*
X059515Y019265D01*
X060890Y019265D01*
X060890Y015015D01*
X059515Y015015D01*
X059515Y015058D02*
X060890Y015058D01*
X060890Y015136D02*
X059515Y015136D01*
X059515Y015215D02*
X060890Y015215D01*
X060890Y015293D02*
X059515Y015293D01*
X059515Y015372D02*
X060890Y015372D01*
X060890Y015450D02*
X059515Y015450D01*
X059515Y015529D02*
X060890Y015529D01*
X060890Y015607D02*
X059515Y015607D01*
X059515Y015686D02*
X060890Y015686D01*
X060890Y015764D02*
X059515Y015764D01*
X059515Y015843D02*
X060890Y015843D01*
X060890Y015921D02*
X059515Y015921D01*
X059515Y016000D02*
X060890Y016000D01*
X060890Y016078D02*
X059515Y016078D01*
X059515Y016157D02*
X060890Y016157D01*
X060890Y016235D02*
X059515Y016235D01*
X059515Y016314D02*
X060890Y016314D01*
X060890Y016392D02*
X059515Y016392D01*
X059515Y016471D02*
X060890Y016471D01*
X060890Y016549D02*
X059515Y016549D01*
X059515Y016628D02*
X060890Y016628D01*
X060890Y016706D02*
X059515Y016706D01*
X059515Y016785D02*
X060890Y016785D01*
X060890Y016863D02*
X059515Y016863D01*
X059515Y016942D02*
X060890Y016942D01*
X060890Y017020D02*
X059515Y017020D01*
X059515Y017099D02*
X060890Y017099D01*
X060890Y017177D02*
X059515Y017177D01*
X059515Y017256D02*
X060890Y017256D01*
X060890Y017334D02*
X059515Y017334D01*
X059515Y017413D02*
X060890Y017413D01*
X060890Y017491D02*
X059515Y017491D01*
X059515Y017570D02*
X060890Y017570D01*
X060890Y017648D02*
X059515Y017648D01*
X059515Y017727D02*
X060890Y017727D01*
X060890Y017805D02*
X059515Y017805D01*
X059515Y017884D02*
X060890Y017884D01*
X060890Y017962D02*
X059515Y017962D01*
X059515Y018041D02*
X060890Y018041D01*
X060890Y018119D02*
X059515Y018119D01*
X059515Y018198D02*
X060890Y018198D01*
X060890Y018276D02*
X059515Y018276D01*
X059515Y018355D02*
X060890Y018355D01*
X060890Y018433D02*
X059515Y018433D01*
X059515Y018512D02*
X060890Y018512D01*
X060890Y018590D02*
X059515Y018590D01*
X059515Y018669D02*
X060890Y018669D01*
X060890Y018747D02*
X059515Y018747D01*
X059515Y018826D02*
X060890Y018826D01*
X060890Y018904D02*
X059515Y018904D01*
X059515Y018983D02*
X060890Y018983D01*
X060890Y019061D02*
X059515Y019061D01*
X059515Y019140D02*
X060890Y019140D01*
X060890Y019218D02*
X059515Y019218D01*
D11*
X051765Y021765D02*
X075390Y021765D01*
X080890Y016265D01*
X080890Y007015D01*
X032390Y021765D02*
X009265Y021765D01*
X003765Y016265D01*
X003765Y007265D01*
D12*
X026975Y015790D03*
X027095Y016030D03*
X027015Y016230D03*
X027515Y015970D03*
X027635Y016090D03*
X027875Y016250D03*
X027875Y016290D03*
X027875Y016330D03*
X027875Y016370D03*
X028255Y016070D03*
X027335Y015750D03*
X027335Y015710D03*
X027335Y015670D03*
X027335Y015630D03*
X027335Y015590D03*
D13*
X027295Y015670D03*
X027275Y015670D03*
X027255Y015670D03*
X027195Y015690D03*
X026955Y015970D03*
X027195Y016250D03*
X027255Y016270D03*
X027295Y016270D03*
X027315Y016270D03*
X027335Y016270D03*
X027355Y016250D03*
X027395Y016250D03*
X027895Y016310D03*
X027915Y016290D03*
X027935Y016310D03*
X027955Y016290D03*
X027975Y016290D03*
X027995Y016290D03*
X028015Y016270D03*
X028255Y015950D03*
X028035Y015690D03*
X028015Y015670D03*
X027995Y015670D03*
X027975Y015670D03*
X027935Y015670D03*
X027915Y015650D03*
X027895Y015670D03*
X027875Y015650D03*
X027855Y015670D03*
X027795Y015690D03*
X028075Y015290D03*
X028095Y015290D03*
X028115Y015290D03*
X028135Y015290D03*
X028155Y015290D03*
X028175Y015290D03*
X028195Y015290D03*
X028215Y015290D03*
X028235Y015290D03*
X028235Y014930D03*
X028195Y014930D03*
X028155Y014930D03*
X028135Y014910D03*
X028115Y014910D03*
X028095Y014910D03*
X028075Y014890D03*
X028055Y014890D03*
X028035Y014890D03*
X028015Y014870D03*
X027975Y014870D03*
X027955Y014850D03*
X027935Y014850D03*
X027735Y014790D03*
X027695Y014790D03*
X027675Y014770D03*
X027655Y014770D03*
X027635Y014770D03*
X027615Y014750D03*
X027575Y014750D03*
X027515Y014730D03*
X027495Y014710D03*
X027455Y014710D03*
X027395Y014690D03*
X027335Y014670D03*
X027295Y014670D03*
X027255Y014470D03*
X027315Y014450D03*
X027375Y014430D03*
X027435Y014410D03*
X027495Y014390D03*
X027535Y014390D03*
X027555Y014370D03*
X027575Y014370D03*
X027595Y014370D03*
X027615Y014350D03*
X027655Y014350D03*
X027675Y014330D03*
X027695Y014330D03*
X027715Y014330D03*
X027735Y014310D03*
X027775Y014310D03*
X027935Y014270D03*
X027955Y014250D03*
X027975Y014250D03*
X027995Y014250D03*
X028015Y014230D03*
X028035Y014230D03*
X028055Y014230D03*
X028075Y014210D03*
X028095Y014210D03*
X028115Y014210D03*
X028135Y014190D03*
X028175Y014190D03*
X028215Y014190D03*
X028235Y014170D03*
X028235Y013850D03*
X028215Y013850D03*
X028195Y013850D03*
X028175Y013850D03*
X028155Y013850D03*
X028135Y013850D03*
X028115Y013850D03*
X028095Y013850D03*
X028075Y013850D03*
X028055Y013850D03*
X028035Y013850D03*
X028015Y013850D03*
X027995Y013850D03*
X027975Y013850D03*
X027955Y013850D03*
X027935Y013850D03*
X027915Y013850D03*
X027895Y013850D03*
X027875Y013850D03*
X027855Y013850D03*
X027835Y013850D03*
X027815Y013850D03*
X027795Y013850D03*
X027775Y013850D03*
X027755Y013850D03*
X027735Y013850D03*
X027715Y013850D03*
X027695Y013850D03*
X027675Y013850D03*
X027655Y013850D03*
X027635Y013850D03*
X027555Y013850D03*
X027515Y013850D03*
X027475Y013850D03*
X028115Y013410D03*
X028155Y013410D03*
X028155Y012970D03*
X028115Y012970D03*
X028075Y012970D03*
X028055Y012970D03*
X028035Y012970D03*
X027995Y012970D03*
X027955Y012970D03*
X027915Y012970D03*
X027895Y012970D03*
X027875Y012970D03*
X027835Y012970D03*
X027795Y012970D03*
X027755Y012970D03*
X027715Y012970D03*
X027675Y012970D03*
X027655Y012950D03*
X027635Y012970D03*
X027555Y012970D03*
X027535Y012950D03*
X027495Y012950D03*
X027375Y012950D03*
X027335Y012950D03*
X028195Y012970D03*
X028215Y012970D03*
X028235Y012970D03*
X026975Y014550D03*
X027135Y017150D03*
X027175Y017150D03*
X027215Y017150D03*
X027255Y017150D03*
X027295Y017150D03*
X027335Y017150D03*
X027375Y017150D03*
X027415Y017150D03*
X027455Y017150D03*
X027495Y017150D03*
X027655Y017150D03*
X027695Y017150D03*
X027735Y017150D03*
X027775Y017150D03*
X027815Y017150D03*
X027855Y017150D03*
X027895Y017150D03*
X027935Y017150D03*
X027975Y017150D03*
X028015Y017150D03*
X028055Y017150D03*
X028095Y017150D03*
X027635Y017610D03*
X027655Y017630D03*
X027695Y017630D03*
X027735Y017630D03*
X027795Y017650D03*
X027795Y017850D03*
X027735Y017870D03*
X027695Y017870D03*
X027535Y017910D03*
X027375Y017950D03*
X027455Y018150D03*
X027615Y018190D03*
X027715Y018210D03*
X027775Y018230D03*
X027815Y018230D03*
X027815Y018430D03*
X027775Y018430D03*
X027715Y018450D03*
X027655Y018470D03*
X027615Y018470D03*
X027575Y018470D03*
X027515Y018490D03*
X027475Y018490D03*
X027455Y018510D03*
X027415Y018510D03*
X027375Y018510D03*
X027315Y018530D03*
X027295Y018530D03*
X027275Y018530D03*
X027255Y018550D03*
X027215Y018550D03*
X027175Y018550D03*
X027155Y018570D03*
X027115Y018570D03*
X027095Y018570D03*
X027075Y018570D03*
X027055Y018590D03*
X027015Y018590D03*
X026995Y018590D03*
X026975Y018590D03*
X027035Y018050D03*
X027055Y018030D03*
X027075Y018050D03*
X028195Y018330D03*
X028215Y018350D03*
X027855Y018430D03*
X028215Y017750D03*
X028195Y017730D03*
X027595Y017610D03*
X027535Y017590D03*
X027495Y017590D03*
X027455Y017590D03*
X027415Y017570D03*
X027395Y017570D03*
X027335Y017550D03*
X027295Y017550D03*
X027255Y017550D03*
X027235Y017530D03*
X027195Y017530D03*
X027175Y017530D03*
X027155Y017530D03*
X027135Y017510D03*
X027095Y017510D03*
X027055Y017510D03*
X027035Y017490D03*
X027015Y017510D03*
X026995Y017490D03*
X026975Y017490D03*
X050160Y013900D03*
X051260Y013800D03*
D14*
X051240Y013810D03*
X051220Y013830D03*
X051180Y013850D03*
X051160Y013870D03*
X051140Y013870D03*
X051120Y013890D03*
X051080Y013910D03*
X051060Y013930D03*
X051040Y013930D03*
X051020Y013950D03*
X050980Y013970D03*
X050960Y013990D03*
X050940Y013990D03*
X050920Y014010D03*
X050880Y014030D03*
X050840Y014050D03*
X050820Y014070D03*
X050780Y014090D03*
X050740Y014110D03*
X050720Y014130D03*
X050680Y014150D03*
X050500Y013910D03*
X050180Y013870D03*
X051120Y013410D03*
X051140Y013410D03*
X051240Y013410D03*
X051260Y013410D03*
X051020Y012430D03*
X051040Y012410D03*
X051060Y012390D03*
X051080Y012370D03*
X050260Y012430D03*
X050240Y012410D03*
X050220Y012390D03*
X050200Y012370D03*
X050200Y011530D03*
X050220Y011510D03*
X050240Y011490D03*
X050260Y011470D03*
X051020Y011470D03*
X051040Y011490D03*
X051060Y011510D03*
X051080Y011530D03*
X028195Y013400D03*
X027495Y013180D03*
X027375Y013160D03*
X027335Y013140D03*
X027315Y013140D03*
X027315Y012960D03*
X027295Y012960D03*
X027355Y012960D03*
X027395Y012960D03*
X027415Y012960D03*
X027435Y012960D03*
X027455Y012960D03*
X027475Y012960D03*
X027515Y012960D03*
X027575Y012960D03*
X027595Y012960D03*
X027615Y012960D03*
X027735Y012960D03*
X027775Y012960D03*
X027935Y012960D03*
X028095Y012960D03*
X027375Y013660D03*
X027335Y013680D03*
X027315Y013680D03*
X027315Y013860D03*
X027295Y013860D03*
X027335Y013860D03*
X027355Y013860D03*
X027375Y013860D03*
X027395Y013860D03*
X027415Y013860D03*
X027435Y013860D03*
X027455Y013860D03*
X027495Y013860D03*
X027535Y013860D03*
X027575Y013860D03*
X027595Y013860D03*
X027615Y013860D03*
X028155Y014200D03*
X028195Y014180D03*
X027755Y014320D03*
X027635Y014360D03*
X027475Y014400D03*
X027455Y014400D03*
X027415Y014420D03*
X027395Y014420D03*
X027335Y014440D03*
X027295Y014460D03*
X027275Y014460D03*
X027235Y014640D03*
X027275Y014660D03*
X027355Y014680D03*
X027375Y014680D03*
X027415Y014700D03*
X027435Y014700D03*
X027475Y014720D03*
X027535Y014740D03*
X027555Y014740D03*
X027715Y014780D03*
X027755Y014800D03*
X027775Y014800D03*
X027955Y015660D03*
X027835Y015680D03*
X027315Y015660D03*
X027235Y015680D03*
X027235Y016260D03*
X027275Y016260D03*
X027275Y017140D03*
X027235Y017140D03*
X027195Y017140D03*
X027155Y017140D03*
X027115Y017140D03*
X027315Y017140D03*
X027355Y017140D03*
X027395Y017140D03*
X027435Y017140D03*
X027475Y017140D03*
X027675Y017140D03*
X027715Y017140D03*
X027755Y017140D03*
X027795Y017140D03*
X027835Y017140D03*
X027875Y017140D03*
X027915Y017140D03*
X027955Y017140D03*
X027995Y017140D03*
X028035Y017140D03*
X028075Y017140D03*
X027575Y017600D03*
X027555Y017600D03*
X027615Y017620D03*
X027675Y017620D03*
X027755Y017640D03*
X027775Y017640D03*
X027835Y017660D03*
X027815Y017840D03*
X027655Y017880D03*
X027635Y017880D03*
X027595Y017900D03*
X027575Y017900D03*
X027495Y017920D03*
X027475Y017920D03*
X027435Y017940D03*
X027415Y017940D03*
X027355Y018120D03*
X027395Y018140D03*
X027415Y018140D03*
X027495Y018160D03*
X027515Y018160D03*
X027555Y018180D03*
X027575Y018180D03*
X027655Y018200D03*
X027675Y018200D03*
X027735Y018220D03*
X027835Y018240D03*
X027795Y018440D03*
X027755Y018440D03*
X027735Y018440D03*
X027695Y018460D03*
X027675Y018460D03*
X027635Y018460D03*
X027595Y018480D03*
X027555Y018480D03*
X027535Y018480D03*
X027495Y018500D03*
X027435Y018500D03*
X027355Y018520D03*
X027335Y018520D03*
X027235Y018540D03*
X027135Y018560D03*
X027035Y018580D03*
X028235Y018340D03*
X027015Y018040D03*
X026995Y018040D03*
X027115Y017520D03*
X027075Y017500D03*
X027215Y017540D03*
X027315Y017560D03*
X027355Y017560D03*
X027375Y017560D03*
X027435Y017580D03*
X027475Y017580D03*
X028235Y017740D03*
D15*
X028235Y016870D03*
X028195Y016870D03*
X028155Y016870D03*
X028115Y016870D03*
X027075Y016870D03*
X027035Y016870D03*
X026995Y016870D03*
X027815Y014570D03*
X027835Y014550D03*
X050080Y014220D03*
X050560Y014220D03*
D16*
X028235Y015970D03*
X027655Y015870D03*
X027635Y015890D03*
X027555Y016050D03*
X027535Y016070D03*
X026975Y015990D03*
X027215Y014550D03*
X027855Y017750D03*
X027895Y017750D03*
D17*
X028235Y013410D03*
D18*
X027895Y014550D03*
X027915Y014570D03*
X028135Y016870D03*
X028175Y016870D03*
X028215Y016870D03*
X027095Y016870D03*
X027055Y016870D03*
X027015Y016870D03*
X026975Y016870D03*
X050560Y016280D03*
X050580Y016280D03*
X050600Y016280D03*
X050620Y016280D03*
X050640Y016280D03*
X050660Y016280D03*
X050660Y018260D03*
X050640Y018260D03*
X050620Y018260D03*
X050600Y018260D03*
X050580Y018260D03*
X050560Y018260D03*
D19*
X028215Y015970D03*
X027015Y015970D03*
D20*
X027115Y016200D03*
X027155Y016240D03*
X027175Y016240D03*
X027215Y016260D03*
X027375Y016260D03*
X027415Y016240D03*
X027435Y016220D03*
X028035Y016260D03*
X027755Y015720D03*
X027775Y015700D03*
X027815Y015680D03*
X027215Y015680D03*
X027175Y015700D03*
X027155Y015720D03*
X028175Y014920D03*
X028215Y014940D03*
X027015Y014560D03*
X026995Y014560D03*
X027695Y012960D03*
X027815Y012960D03*
X027855Y012960D03*
X027975Y012960D03*
X028015Y012960D03*
X028135Y012960D03*
X028175Y012960D03*
X028175Y017740D03*
X028155Y017740D03*
X027115Y018040D03*
X028155Y018340D03*
X028175Y018340D03*
X050520Y013930D03*
X051160Y013410D03*
X051180Y013410D03*
X051200Y013410D03*
X051220Y013410D03*
X051100Y012350D03*
X051120Y012330D03*
X050180Y012350D03*
X050160Y012330D03*
X050160Y011570D03*
X050180Y011550D03*
X051100Y011550D03*
X051120Y011570D03*
D21*
X051000Y011460D03*
X050980Y011440D03*
X050960Y011440D03*
X050940Y011420D03*
X050900Y011400D03*
X050840Y011380D03*
X050760Y011360D03*
X050520Y011360D03*
X050440Y011380D03*
X050380Y011400D03*
X050340Y011420D03*
X050320Y011440D03*
X050300Y011440D03*
X050280Y011460D03*
X050280Y012440D03*
X050300Y012460D03*
X050320Y012460D03*
X050340Y012480D03*
X050380Y012500D03*
X050440Y012520D03*
X050520Y012540D03*
X050760Y012540D03*
X050840Y012520D03*
X050900Y012500D03*
X050940Y012480D03*
X050960Y012460D03*
X050980Y012460D03*
X051000Y012440D03*
X051200Y013840D03*
X051100Y013900D03*
X051000Y013960D03*
X050900Y014020D03*
X050860Y014040D03*
X050800Y014080D03*
X050760Y014100D03*
X050700Y014140D03*
X050480Y013880D03*
X050460Y013860D03*
X050400Y013840D03*
X050240Y013840D03*
X050200Y013860D03*
X028215Y013410D03*
X028175Y013410D03*
X027975Y013330D03*
X027935Y013330D03*
X027915Y013310D03*
X027895Y013310D03*
X027875Y013310D03*
X027855Y013290D03*
X027815Y013290D03*
X027795Y013270D03*
X027775Y013270D03*
X027755Y013270D03*
X027735Y013250D03*
X027695Y013250D03*
X027655Y013250D03*
X027635Y013230D03*
X027615Y013210D03*
X027575Y013210D03*
X027555Y013210D03*
X027535Y013210D03*
X027515Y013190D03*
X027475Y013190D03*
X027455Y013170D03*
X027435Y013170D03*
X027415Y013170D03*
X027395Y013150D03*
X027355Y013150D03*
X027295Y013130D03*
X027815Y013530D03*
X027795Y013550D03*
X027755Y013550D03*
X027735Y013570D03*
X027695Y013570D03*
X027655Y013570D03*
X027635Y013590D03*
X027615Y013610D03*
X027575Y013610D03*
X027555Y013610D03*
X027535Y013610D03*
X027515Y013630D03*
X027495Y013630D03*
X027475Y013630D03*
X027455Y013650D03*
X027435Y013650D03*
X027415Y013650D03*
X027395Y013670D03*
X027355Y013670D03*
X027295Y013690D03*
X027855Y013530D03*
X027875Y013510D03*
X027895Y013510D03*
X027915Y013510D03*
X027935Y013490D03*
X027975Y013490D03*
X027515Y014390D03*
X027355Y014430D03*
X027235Y014470D03*
X027255Y014650D03*
X027315Y014670D03*
X027595Y014750D03*
X027995Y014870D03*
X027515Y017590D03*
X027715Y017630D03*
X027815Y017650D03*
X027835Y017830D03*
X027775Y017850D03*
X027755Y017870D03*
X027715Y017870D03*
X027675Y017870D03*
X027615Y017890D03*
X027555Y017910D03*
X027515Y017910D03*
X027455Y017930D03*
X027395Y017950D03*
X027355Y017950D03*
X027375Y018130D03*
X027435Y018150D03*
X027475Y018150D03*
X027535Y018170D03*
X027595Y018190D03*
X027635Y018190D03*
X027695Y018210D03*
X027755Y018230D03*
X027795Y018230D03*
X027855Y018250D03*
X027835Y018430D03*
X027395Y018510D03*
X027195Y018550D03*
X026975Y018050D03*
X027275Y017550D03*
D22*
X027035Y015970D03*
X028195Y015970D03*
X050000Y014320D03*
D23*
X028175Y015960D03*
D24*
X028155Y015970D03*
X027055Y015970D03*
X050020Y014280D03*
D25*
X050140Y013920D03*
X050140Y012300D03*
X051140Y012300D03*
X051140Y011600D03*
X050140Y011600D03*
X028135Y013410D03*
X028095Y013410D03*
X028075Y013410D03*
X028055Y013410D03*
X026995Y012990D03*
X027035Y014550D03*
X027075Y014550D03*
X027135Y015730D03*
X027115Y015750D03*
X027715Y015750D03*
X027735Y015730D03*
X028055Y015690D03*
X028075Y015710D03*
X028095Y015730D03*
X028095Y016210D03*
X028075Y016230D03*
X028055Y016250D03*
X027475Y016190D03*
X027455Y016210D03*
X027135Y016210D03*
X028075Y017750D03*
X028115Y017750D03*
X028135Y017730D03*
X027135Y018050D03*
X027095Y018050D03*
X028115Y018350D03*
X028135Y018330D03*
D26*
X027615Y016910D03*
X027575Y016910D03*
X027535Y016910D03*
X028135Y015970D03*
X050060Y014240D03*
D27*
X050120Y013960D03*
X028115Y015770D03*
X027695Y015790D03*
X027095Y015790D03*
X027495Y016150D03*
X027515Y016130D03*
X028115Y016170D03*
X028055Y017750D03*
X028015Y017750D03*
X027235Y018050D03*
X027195Y018050D03*
X027995Y018330D03*
X028015Y018350D03*
X028035Y018330D03*
X028055Y018350D03*
X027115Y014570D03*
X027095Y014550D03*
X027075Y013810D03*
X027055Y013810D03*
X027035Y013810D03*
X027115Y013810D03*
X028015Y013410D03*
X028035Y013410D03*
X027115Y013010D03*
X027075Y013010D03*
X027035Y013010D03*
X027015Y012990D03*
D28*
X026975Y013000D03*
X026975Y013820D03*
X026995Y013820D03*
X027015Y013820D03*
X027055Y014560D03*
X027095Y016180D03*
X028035Y017740D03*
X028095Y017740D03*
X027175Y018040D03*
X027155Y018040D03*
X028075Y018340D03*
X028095Y018340D03*
X049980Y011950D03*
X050120Y011650D03*
X051160Y011650D03*
X051300Y011950D03*
X051160Y012250D03*
X050120Y012250D03*
X050540Y013970D03*
D29*
X050100Y012210D03*
X051180Y012210D03*
X051180Y011690D03*
X050100Y011690D03*
X027995Y017740D03*
X027975Y017740D03*
X027275Y018040D03*
X027215Y018040D03*
X027955Y018340D03*
X027135Y014560D03*
X027135Y013800D03*
X027155Y013800D03*
X027175Y013800D03*
X027095Y013800D03*
X027095Y013020D03*
X027135Y013020D03*
X027155Y013020D03*
X027055Y013000D03*
D30*
X027595Y013220D03*
X027675Y013240D03*
X027715Y013260D03*
X027835Y013280D03*
X027955Y013320D03*
X027995Y013340D03*
X027995Y013480D03*
X027955Y013500D03*
X027835Y013520D03*
X027775Y013540D03*
X027715Y013560D03*
X027675Y013580D03*
X027595Y013600D03*
X050000Y012930D03*
X050020Y012930D03*
X050040Y012930D03*
X050060Y012930D03*
X050080Y012930D03*
X050100Y012930D03*
X050120Y012930D03*
X050140Y012930D03*
X050160Y012930D03*
X050180Y012930D03*
X050200Y012930D03*
X050220Y012930D03*
X050240Y012930D03*
X050260Y012930D03*
X050280Y012930D03*
X050300Y012930D03*
X050320Y012930D03*
X050340Y012930D03*
X050360Y012930D03*
X050380Y012930D03*
X050400Y012930D03*
X050420Y012930D03*
X050440Y012930D03*
X050460Y012930D03*
X050480Y012930D03*
X050500Y012930D03*
X050520Y012930D03*
X050540Y012930D03*
X050560Y012930D03*
X050580Y012930D03*
X050600Y012930D03*
X050620Y012930D03*
X050640Y012930D03*
X050660Y012930D03*
X050680Y012930D03*
X050700Y012930D03*
X050720Y012930D03*
X050740Y012930D03*
X050760Y012930D03*
X050780Y012930D03*
X050800Y012930D03*
X050820Y012930D03*
X050840Y012930D03*
X050860Y012930D03*
X050880Y012930D03*
X050900Y012930D03*
X050920Y012930D03*
X050940Y012930D03*
X050960Y012930D03*
X050980Y012930D03*
X051000Y012930D03*
X051020Y012930D03*
X051040Y012930D03*
X051060Y012930D03*
X051080Y012930D03*
X051100Y012930D03*
X051120Y012930D03*
X051140Y012930D03*
X051160Y012930D03*
X051180Y012930D03*
X051200Y012930D03*
X051220Y012930D03*
X051240Y012930D03*
X051260Y012930D03*
X050880Y012510D03*
X050860Y012510D03*
X050820Y012530D03*
X050800Y012530D03*
X050780Y012530D03*
X050740Y012550D03*
X050720Y012550D03*
X050700Y012550D03*
X050680Y012550D03*
X050660Y012550D03*
X050640Y012550D03*
X050620Y012550D03*
X050600Y012550D03*
X050580Y012550D03*
X050560Y012550D03*
X050540Y012550D03*
X050500Y012530D03*
X050480Y012530D03*
X050460Y012530D03*
X050420Y012510D03*
X050400Y012510D03*
X050360Y012490D03*
X050920Y012490D03*
X050920Y011410D03*
X050880Y011390D03*
X050860Y011390D03*
X050820Y011370D03*
X050800Y011370D03*
X050780Y011370D03*
X050740Y011350D03*
X050720Y011350D03*
X050700Y011350D03*
X050680Y011350D03*
X050660Y011350D03*
X050640Y011350D03*
X050620Y011350D03*
X050600Y011350D03*
X050580Y011350D03*
X050560Y011350D03*
X050540Y011350D03*
X050500Y011370D03*
X050480Y011370D03*
X050460Y011370D03*
X050420Y011390D03*
X050400Y011390D03*
X050360Y011410D03*
X050360Y013830D03*
X050340Y013830D03*
X050320Y013830D03*
X050300Y013830D03*
X050280Y013830D03*
X050260Y013830D03*
X050220Y013850D03*
X050380Y013830D03*
X050420Y013850D03*
X050440Y013850D03*
X050440Y014510D03*
X050420Y014510D03*
X050400Y014510D03*
X050380Y014510D03*
X050360Y014510D03*
X050340Y014510D03*
X050320Y014510D03*
X050300Y014510D03*
X050280Y014510D03*
X050260Y014510D03*
X050240Y014510D03*
X050220Y014510D03*
X050200Y014510D03*
X050180Y014510D03*
X050160Y014510D03*
X050140Y014510D03*
X050120Y014510D03*
X050460Y014510D03*
X050480Y014510D03*
X050500Y014510D03*
X050520Y014510D03*
X050540Y014510D03*
X050680Y014510D03*
X050700Y014510D03*
X050720Y014510D03*
X050740Y014510D03*
X050760Y014510D03*
X050780Y014510D03*
X050800Y014510D03*
X050820Y014510D03*
X050840Y014510D03*
X050860Y014510D03*
X050880Y014510D03*
X050900Y014510D03*
X050920Y014510D03*
X050940Y014510D03*
X050960Y014510D03*
X050980Y014510D03*
X051000Y014510D03*
X051020Y014510D03*
X051040Y014510D03*
X051060Y014510D03*
X051080Y014510D03*
X051100Y014510D03*
X051120Y014510D03*
X051140Y014510D03*
X051160Y014510D03*
X051180Y014510D03*
X051200Y014510D03*
X051220Y014510D03*
X051240Y014510D03*
X051260Y014510D03*
X051260Y015230D03*
X051240Y015230D03*
X051220Y015230D03*
X051200Y015230D03*
X051180Y015230D03*
X051160Y015230D03*
X051140Y015230D03*
X051120Y015230D03*
X051100Y015230D03*
X051080Y015230D03*
X051060Y015230D03*
X051040Y015230D03*
X051020Y015230D03*
X051000Y015230D03*
X050980Y015230D03*
X050960Y015230D03*
X050940Y015230D03*
X050920Y015230D03*
X050900Y015230D03*
X050880Y015230D03*
X050860Y015230D03*
X050840Y015230D03*
X050820Y015230D03*
X050800Y015230D03*
X050780Y015230D03*
X050760Y015230D03*
X050740Y015230D03*
X050720Y015230D03*
X050700Y015230D03*
X050680Y015230D03*
X050660Y015230D03*
X050640Y015230D03*
X050620Y015230D03*
X050600Y015230D03*
X050580Y015230D03*
X050560Y015230D03*
X050540Y015230D03*
X050520Y015230D03*
X050500Y015230D03*
X050480Y015230D03*
X050460Y015230D03*
X050440Y015230D03*
X050420Y015230D03*
X050400Y015230D03*
X050380Y015230D03*
X050360Y015230D03*
X050340Y015230D03*
X050320Y015230D03*
X050300Y015230D03*
X050280Y015230D03*
X050260Y015230D03*
X050240Y015230D03*
X050220Y015230D03*
X050200Y015230D03*
X050180Y015230D03*
X050160Y015230D03*
X050140Y015230D03*
X050120Y015230D03*
X050120Y016590D03*
X050140Y016590D03*
X050160Y016590D03*
X050180Y016590D03*
X050200Y016590D03*
X050220Y016590D03*
X050240Y016590D03*
X050260Y016590D03*
X050280Y016590D03*
X050300Y016590D03*
X050320Y016590D03*
X050340Y016590D03*
X050360Y016590D03*
X050380Y016590D03*
X050400Y016590D03*
X050420Y016590D03*
X050440Y016590D03*
X050460Y016590D03*
X050480Y016590D03*
X050500Y016590D03*
X050520Y016590D03*
X050540Y016590D03*
X050680Y016590D03*
X050700Y016590D03*
X050720Y016590D03*
X050740Y016590D03*
X050760Y016590D03*
X050780Y016590D03*
X050800Y016590D03*
X050820Y016590D03*
X050840Y016590D03*
X050860Y016590D03*
X050880Y016590D03*
X050900Y016590D03*
X050920Y016590D03*
X050940Y016590D03*
X050960Y016590D03*
X050980Y016590D03*
X051000Y016590D03*
X051020Y016590D03*
X051040Y016590D03*
X051060Y016590D03*
X051080Y016590D03*
X051100Y016590D03*
X051120Y016590D03*
X051140Y016590D03*
X051140Y017510D03*
X051120Y017510D03*
X051100Y017510D03*
X051080Y017510D03*
X051060Y017510D03*
X051040Y017510D03*
X051020Y017510D03*
X051000Y017510D03*
X050980Y017510D03*
X050960Y017510D03*
X050940Y017510D03*
X050920Y017510D03*
X050900Y017510D03*
X050880Y017510D03*
X050860Y017510D03*
X050840Y017510D03*
X050820Y017510D03*
X050800Y017510D03*
X050780Y017510D03*
X050760Y017510D03*
X050740Y017510D03*
X050720Y017510D03*
X050700Y017510D03*
X050680Y017510D03*
X050660Y017510D03*
X050640Y017510D03*
X050620Y017510D03*
X050600Y017510D03*
X050580Y017510D03*
X050560Y017510D03*
X050540Y017510D03*
X050520Y017510D03*
X050500Y017510D03*
X050480Y017510D03*
X050460Y017510D03*
X050440Y017510D03*
X050420Y017510D03*
X050400Y017510D03*
X050380Y017510D03*
X050360Y017510D03*
X050340Y017510D03*
X050320Y017510D03*
X050300Y017510D03*
X050280Y017510D03*
X050260Y017510D03*
X050240Y017510D03*
X050220Y017510D03*
X050200Y017510D03*
X050180Y017510D03*
X050160Y017510D03*
X050140Y017510D03*
X050120Y017510D03*
X050100Y017510D03*
X050080Y017510D03*
X050060Y017510D03*
X050040Y017510D03*
X050020Y017510D03*
X050000Y017510D03*
X050120Y018570D03*
X050140Y018570D03*
X050160Y018570D03*
X050180Y018570D03*
X050200Y018570D03*
X050220Y018570D03*
X050240Y018570D03*
X050260Y018570D03*
X050280Y018570D03*
X050300Y018570D03*
X050320Y018570D03*
X050340Y018570D03*
X050360Y018570D03*
X050380Y018570D03*
X050400Y018570D03*
X050420Y018570D03*
X050440Y018570D03*
X050460Y018570D03*
X050480Y018570D03*
X050500Y018570D03*
X050520Y018570D03*
X050540Y018570D03*
X050680Y018570D03*
X050700Y018570D03*
X050720Y018570D03*
X050740Y018570D03*
X050760Y018570D03*
X050780Y018570D03*
X050800Y018570D03*
X050820Y018570D03*
X050840Y018570D03*
X050860Y018570D03*
X050880Y018570D03*
X050900Y018570D03*
X050920Y018570D03*
X050940Y018570D03*
X050960Y018570D03*
X050980Y018570D03*
X051000Y018570D03*
X051020Y018570D03*
X051040Y018570D03*
X051060Y018570D03*
X051080Y018570D03*
X051100Y018570D03*
X051120Y018570D03*
X051140Y018570D03*
D31*
X027975Y018330D03*
X027935Y018330D03*
X027915Y018350D03*
X027295Y018050D03*
X027255Y018050D03*
X027915Y017750D03*
X027955Y017750D03*
X027675Y015830D03*
X027195Y014550D03*
X027155Y014550D03*
X027195Y013790D03*
X027215Y013790D03*
X027235Y013790D03*
X027275Y013790D03*
X027275Y013030D03*
X027235Y013030D03*
X027195Y013030D03*
X027175Y013010D03*
D32*
X027215Y013020D03*
X027255Y013040D03*
X027255Y013780D03*
X027175Y014560D03*
X027875Y017740D03*
X027935Y017740D03*
X027335Y018040D03*
X027315Y018040D03*
X027875Y018340D03*
X027895Y018340D03*
D33*
X027875Y014560D03*
X027855Y014560D03*
X050100Y014210D03*
X051160Y017210D03*
X051180Y017210D03*
X051200Y017210D03*
X051220Y017210D03*
X051240Y017210D03*
X051260Y017210D03*
D34*
X050580Y014230D03*
X050060Y011950D03*
X051220Y011950D03*
X027795Y014560D03*
D35*
X027635Y016900D03*
X027515Y016900D03*
X050040Y014250D03*
X050600Y014250D03*
D36*
X027615Y015930D03*
X027575Y016010D03*
D37*
X027555Y016910D03*
X027595Y016910D03*
D38*
X027595Y015980D03*
D39*
X027075Y015980D03*
X050040Y011950D03*
X051240Y011950D03*
X050620Y014270D03*
D40*
X026995Y015970D03*
D41*
X051100Y013410D03*
X051280Y013410D03*
D42*
X051280Y011950D03*
X050000Y011950D03*
D43*
X051160Y016250D03*
X051180Y016250D03*
X051200Y016250D03*
X051220Y016250D03*
X051240Y016250D03*
X051260Y016250D03*
X051260Y018230D03*
X051240Y018230D03*
X051220Y018230D03*
X051200Y018230D03*
X051180Y018230D03*
X051160Y018230D03*
D44*
X051260Y011950D03*
X050020Y011950D03*
D45*
X050080Y011950D03*
X051200Y011950D03*
D46*
X050660Y014330D03*
D47*
X050640Y014300D03*
D48*
X050100Y016260D03*
X050080Y016260D03*
X050060Y016260D03*
X050040Y016260D03*
X050020Y016260D03*
X050000Y016260D03*
X050000Y018240D03*
X050020Y018240D03*
X050040Y018240D03*
X050060Y018240D03*
X050080Y018240D03*
X050100Y018240D03*
D49*
X050100Y015230D03*
X050080Y015230D03*
X050060Y015230D03*
X050040Y015230D03*
X050020Y015230D03*
X050000Y015230D03*
D50*
X049832Y004868D02*
X049028Y004868D01*
X049028Y005672D01*
X049832Y005672D01*
X049832Y004868D01*
X049832Y004909D02*
X049028Y004909D01*
X049028Y004950D02*
X049832Y004950D01*
X049832Y004991D02*
X049028Y004991D01*
X049028Y005032D02*
X049832Y005032D01*
X049832Y005073D02*
X049028Y005073D01*
X049028Y005114D02*
X049832Y005114D01*
X049832Y005155D02*
X049028Y005155D01*
X049028Y005196D02*
X049832Y005196D01*
X049832Y005237D02*
X049028Y005237D01*
X049028Y005278D02*
X049832Y005278D01*
X049832Y005319D02*
X049028Y005319D01*
X049028Y005360D02*
X049832Y005360D01*
X049832Y005401D02*
X049028Y005401D01*
X049028Y005442D02*
X049832Y005442D01*
X049832Y005483D02*
X049028Y005483D01*
X049028Y005524D02*
X049832Y005524D01*
X049832Y005565D02*
X049028Y005565D01*
X049028Y005606D02*
X049832Y005606D01*
X049832Y005647D02*
X049028Y005647D01*
X048257Y005672D02*
X047453Y005672D01*
X048257Y005672D02*
X048257Y004868D01*
X047453Y004868D01*
X047453Y005672D01*
X047453Y004909D02*
X048257Y004909D01*
X048257Y004950D02*
X047453Y004950D01*
X047453Y004991D02*
X048257Y004991D01*
X048257Y005032D02*
X047453Y005032D01*
X047453Y005073D02*
X048257Y005073D01*
X048257Y005114D02*
X047453Y005114D01*
X047453Y005155D02*
X048257Y005155D01*
X048257Y005196D02*
X047453Y005196D01*
X047453Y005237D02*
X048257Y005237D01*
X048257Y005278D02*
X047453Y005278D01*
X047453Y005319D02*
X048257Y005319D01*
X048257Y005360D02*
X047453Y005360D01*
X047453Y005401D02*
X048257Y005401D01*
X048257Y005442D02*
X047453Y005442D01*
X047453Y005483D02*
X048257Y005483D01*
X048257Y005524D02*
X047453Y005524D01*
X047453Y005565D02*
X048257Y005565D01*
X048257Y005606D02*
X047453Y005606D01*
X047453Y005647D02*
X048257Y005647D01*
X051331Y005667D02*
X052135Y005667D01*
X052135Y004863D01*
X051331Y004863D01*
X051331Y005667D01*
X051331Y004904D02*
X052135Y004904D01*
X052135Y004945D02*
X051331Y004945D01*
X051331Y004986D02*
X052135Y004986D01*
X052135Y005027D02*
X051331Y005027D01*
X051331Y005068D02*
X052135Y005068D01*
X052135Y005109D02*
X051331Y005109D01*
X051331Y005150D02*
X052135Y005150D01*
X052135Y005191D02*
X051331Y005191D01*
X051331Y005232D02*
X052135Y005232D01*
X052135Y005273D02*
X051331Y005273D01*
X051331Y005314D02*
X052135Y005314D01*
X052135Y005355D02*
X051331Y005355D01*
X051331Y005396D02*
X052135Y005396D01*
X052135Y005437D02*
X051331Y005437D01*
X051331Y005478D02*
X052135Y005478D01*
X052135Y005519D02*
X051331Y005519D01*
X051331Y005560D02*
X052135Y005560D01*
X052135Y005601D02*
X051331Y005601D01*
X051331Y005642D02*
X052135Y005642D01*
X052905Y004863D02*
X053709Y004863D01*
X052905Y004863D02*
X052905Y005667D01*
X053709Y005667D01*
X053709Y004863D01*
X053709Y004904D02*
X052905Y004904D01*
X052905Y004945D02*
X053709Y004945D01*
X053709Y004986D02*
X052905Y004986D01*
X052905Y005027D02*
X053709Y005027D01*
X053709Y005068D02*
X052905Y005068D01*
X052905Y005109D02*
X053709Y005109D01*
X053709Y005150D02*
X052905Y005150D01*
X052905Y005191D02*
X053709Y005191D01*
X053709Y005232D02*
X052905Y005232D01*
X052905Y005273D02*
X053709Y005273D01*
X053709Y005314D02*
X052905Y005314D01*
X052905Y005355D02*
X053709Y005355D01*
X053709Y005396D02*
X052905Y005396D01*
X052905Y005437D02*
X053709Y005437D01*
X053709Y005478D02*
X052905Y005478D01*
X052905Y005519D02*
X053709Y005519D01*
X053709Y005560D02*
X052905Y005560D01*
X052905Y005601D02*
X053709Y005601D01*
X053709Y005642D02*
X052905Y005642D01*
X055203Y005667D02*
X056007Y005667D01*
X056007Y004863D01*
X055203Y004863D01*
X055203Y005667D01*
X055203Y004904D02*
X056007Y004904D01*
X056007Y004945D02*
X055203Y004945D01*
X055203Y004986D02*
X056007Y004986D01*
X056007Y005027D02*
X055203Y005027D01*
X055203Y005068D02*
X056007Y005068D01*
X056007Y005109D02*
X055203Y005109D01*
X055203Y005150D02*
X056007Y005150D01*
X056007Y005191D02*
X055203Y005191D01*
X055203Y005232D02*
X056007Y005232D01*
X056007Y005273D02*
X055203Y005273D01*
X055203Y005314D02*
X056007Y005314D01*
X056007Y005355D02*
X055203Y005355D01*
X055203Y005396D02*
X056007Y005396D01*
X056007Y005437D02*
X055203Y005437D01*
X055203Y005478D02*
X056007Y005478D01*
X056007Y005519D02*
X055203Y005519D01*
X055203Y005560D02*
X056007Y005560D01*
X056007Y005601D02*
X055203Y005601D01*
X055203Y005642D02*
X056007Y005642D01*
X056778Y004863D02*
X057582Y004863D01*
X056778Y004863D02*
X056778Y005667D01*
X057582Y005667D01*
X057582Y004863D01*
X057582Y004904D02*
X056778Y004904D01*
X056778Y004945D02*
X057582Y004945D01*
X057582Y004986D02*
X056778Y004986D01*
X056778Y005027D02*
X057582Y005027D01*
X057582Y005068D02*
X056778Y005068D01*
X056778Y005109D02*
X057582Y005109D01*
X057582Y005150D02*
X056778Y005150D01*
X056778Y005191D02*
X057582Y005191D01*
X057582Y005232D02*
X056778Y005232D01*
X056778Y005273D02*
X057582Y005273D01*
X057582Y005314D02*
X056778Y005314D01*
X056778Y005355D02*
X057582Y005355D01*
X057582Y005396D02*
X056778Y005396D01*
X056778Y005437D02*
X057582Y005437D01*
X057582Y005478D02*
X056778Y005478D01*
X056778Y005519D02*
X057582Y005519D01*
X057582Y005560D02*
X056778Y005560D01*
X056778Y005601D02*
X057582Y005601D01*
X057582Y005642D02*
X056778Y005642D01*
X059076Y005667D02*
X059880Y005667D01*
X059880Y004863D01*
X059076Y004863D01*
X059076Y005667D01*
X059076Y004904D02*
X059880Y004904D01*
X059880Y004945D02*
X059076Y004945D01*
X059076Y004986D02*
X059880Y004986D01*
X059880Y005027D02*
X059076Y005027D01*
X059076Y005068D02*
X059880Y005068D01*
X059880Y005109D02*
X059076Y005109D01*
X059076Y005150D02*
X059880Y005150D01*
X059880Y005191D02*
X059076Y005191D01*
X059076Y005232D02*
X059880Y005232D01*
X059880Y005273D02*
X059076Y005273D01*
X059076Y005314D02*
X059880Y005314D01*
X059880Y005355D02*
X059076Y005355D01*
X059076Y005396D02*
X059880Y005396D01*
X059880Y005437D02*
X059076Y005437D01*
X059076Y005478D02*
X059880Y005478D01*
X059880Y005519D02*
X059076Y005519D01*
X059076Y005560D02*
X059880Y005560D01*
X059880Y005601D02*
X059076Y005601D01*
X059076Y005642D02*
X059880Y005642D01*
X060650Y004863D02*
X061454Y004863D01*
X060650Y004863D02*
X060650Y005667D01*
X061454Y005667D01*
X061454Y004863D01*
X061454Y004904D02*
X060650Y004904D01*
X060650Y004945D02*
X061454Y004945D01*
X061454Y004986D02*
X060650Y004986D01*
X060650Y005027D02*
X061454Y005027D01*
X061454Y005068D02*
X060650Y005068D01*
X060650Y005109D02*
X061454Y005109D01*
X061454Y005150D02*
X060650Y005150D01*
X060650Y005191D02*
X061454Y005191D01*
X061454Y005232D02*
X060650Y005232D01*
X060650Y005273D02*
X061454Y005273D01*
X061454Y005314D02*
X060650Y005314D01*
X060650Y005355D02*
X061454Y005355D01*
X061454Y005396D02*
X060650Y005396D01*
X060650Y005437D02*
X061454Y005437D01*
X061454Y005478D02*
X060650Y005478D01*
X060650Y005519D02*
X061454Y005519D01*
X061454Y005560D02*
X060650Y005560D01*
X060650Y005601D02*
X061454Y005601D01*
X061454Y005642D02*
X060650Y005642D01*
X062953Y005667D02*
X063757Y005667D01*
X063757Y004863D01*
X062953Y004863D01*
X062953Y005667D01*
X062953Y004904D02*
X063757Y004904D01*
X063757Y004945D02*
X062953Y004945D01*
X062953Y004986D02*
X063757Y004986D01*
X063757Y005027D02*
X062953Y005027D01*
X062953Y005068D02*
X063757Y005068D01*
X063757Y005109D02*
X062953Y005109D01*
X062953Y005150D02*
X063757Y005150D01*
X063757Y005191D02*
X062953Y005191D01*
X062953Y005232D02*
X063757Y005232D01*
X063757Y005273D02*
X062953Y005273D01*
X062953Y005314D02*
X063757Y005314D01*
X063757Y005355D02*
X062953Y005355D01*
X062953Y005396D02*
X063757Y005396D01*
X063757Y005437D02*
X062953Y005437D01*
X062953Y005478D02*
X063757Y005478D01*
X063757Y005519D02*
X062953Y005519D01*
X062953Y005560D02*
X063757Y005560D01*
X063757Y005601D02*
X062953Y005601D01*
X062953Y005642D02*
X063757Y005642D01*
X064528Y004863D02*
X065332Y004863D01*
X064528Y004863D02*
X064528Y005667D01*
X065332Y005667D01*
X065332Y004863D01*
X065332Y004904D02*
X064528Y004904D01*
X064528Y004945D02*
X065332Y004945D01*
X065332Y004986D02*
X064528Y004986D01*
X064528Y005027D02*
X065332Y005027D01*
X065332Y005068D02*
X064528Y005068D01*
X064528Y005109D02*
X065332Y005109D01*
X065332Y005150D02*
X064528Y005150D01*
X064528Y005191D02*
X065332Y005191D01*
X065332Y005232D02*
X064528Y005232D01*
X064528Y005273D02*
X065332Y005273D01*
X065332Y005314D02*
X064528Y005314D01*
X064528Y005355D02*
X065332Y005355D01*
X065332Y005396D02*
X064528Y005396D01*
X064528Y005437D02*
X065332Y005437D01*
X065332Y005478D02*
X064528Y005478D01*
X064528Y005519D02*
X065332Y005519D01*
X065332Y005560D02*
X064528Y005560D01*
X064528Y005601D02*
X065332Y005601D01*
X065332Y005642D02*
X064528Y005642D01*
X066831Y005667D02*
X067635Y005667D01*
X067635Y004863D01*
X066831Y004863D01*
X066831Y005667D01*
X066831Y004904D02*
X067635Y004904D01*
X067635Y004945D02*
X066831Y004945D01*
X066831Y004986D02*
X067635Y004986D01*
X067635Y005027D02*
X066831Y005027D01*
X066831Y005068D02*
X067635Y005068D01*
X067635Y005109D02*
X066831Y005109D01*
X066831Y005150D02*
X067635Y005150D01*
X067635Y005191D02*
X066831Y005191D01*
X066831Y005232D02*
X067635Y005232D01*
X067635Y005273D02*
X066831Y005273D01*
X066831Y005314D02*
X067635Y005314D01*
X067635Y005355D02*
X066831Y005355D01*
X066831Y005396D02*
X067635Y005396D01*
X067635Y005437D02*
X066831Y005437D01*
X066831Y005478D02*
X067635Y005478D01*
X067635Y005519D02*
X066831Y005519D01*
X066831Y005560D02*
X067635Y005560D01*
X067635Y005601D02*
X066831Y005601D01*
X066831Y005642D02*
X067635Y005642D01*
X068405Y004863D02*
X069209Y004863D01*
X068405Y004863D02*
X068405Y005667D01*
X069209Y005667D01*
X069209Y004863D01*
X069209Y004904D02*
X068405Y004904D01*
X068405Y004945D02*
X069209Y004945D01*
X069209Y004986D02*
X068405Y004986D01*
X068405Y005027D02*
X069209Y005027D01*
X069209Y005068D02*
X068405Y005068D01*
X068405Y005109D02*
X069209Y005109D01*
X069209Y005150D02*
X068405Y005150D01*
X068405Y005191D02*
X069209Y005191D01*
X069209Y005232D02*
X068405Y005232D01*
X068405Y005273D02*
X069209Y005273D01*
X069209Y005314D02*
X068405Y005314D01*
X068405Y005355D02*
X069209Y005355D01*
X069209Y005396D02*
X068405Y005396D01*
X068405Y005437D02*
X069209Y005437D01*
X069209Y005478D02*
X068405Y005478D01*
X068405Y005519D02*
X069209Y005519D01*
X069209Y005560D02*
X068405Y005560D01*
X068405Y005601D02*
X069209Y005601D01*
X069209Y005642D02*
X068405Y005642D01*
X070703Y005667D02*
X071507Y005667D01*
X071507Y004863D01*
X070703Y004863D01*
X070703Y005667D01*
X070703Y004904D02*
X071507Y004904D01*
X071507Y004945D02*
X070703Y004945D01*
X070703Y004986D02*
X071507Y004986D01*
X071507Y005027D02*
X070703Y005027D01*
X070703Y005068D02*
X071507Y005068D01*
X071507Y005109D02*
X070703Y005109D01*
X070703Y005150D02*
X071507Y005150D01*
X071507Y005191D02*
X070703Y005191D01*
X070703Y005232D02*
X071507Y005232D01*
X071507Y005273D02*
X070703Y005273D01*
X070703Y005314D02*
X071507Y005314D01*
X071507Y005355D02*
X070703Y005355D01*
X070703Y005396D02*
X071507Y005396D01*
X071507Y005437D02*
X070703Y005437D01*
X070703Y005478D02*
X071507Y005478D01*
X071507Y005519D02*
X070703Y005519D01*
X070703Y005560D02*
X071507Y005560D01*
X071507Y005601D02*
X070703Y005601D01*
X070703Y005642D02*
X071507Y005642D01*
X072278Y004863D02*
X073082Y004863D01*
X072278Y004863D02*
X072278Y005667D01*
X073082Y005667D01*
X073082Y004863D01*
X073082Y004904D02*
X072278Y004904D01*
X072278Y004945D02*
X073082Y004945D01*
X073082Y004986D02*
X072278Y004986D01*
X072278Y005027D02*
X073082Y005027D01*
X073082Y005068D02*
X072278Y005068D01*
X072278Y005109D02*
X073082Y005109D01*
X073082Y005150D02*
X072278Y005150D01*
X072278Y005191D02*
X073082Y005191D01*
X073082Y005232D02*
X072278Y005232D01*
X072278Y005273D02*
X073082Y005273D01*
X073082Y005314D02*
X072278Y005314D01*
X072278Y005355D02*
X073082Y005355D01*
X073082Y005396D02*
X072278Y005396D01*
X072278Y005437D02*
X073082Y005437D01*
X073082Y005478D02*
X072278Y005478D01*
X072278Y005519D02*
X073082Y005519D01*
X073082Y005560D02*
X072278Y005560D01*
X072278Y005601D02*
X073082Y005601D01*
X073082Y005642D02*
X072278Y005642D01*
X074576Y005667D02*
X075380Y005667D01*
X075380Y004863D01*
X074576Y004863D01*
X074576Y005667D01*
X074576Y004904D02*
X075380Y004904D01*
X075380Y004945D02*
X074576Y004945D01*
X074576Y004986D02*
X075380Y004986D01*
X075380Y005027D02*
X074576Y005027D01*
X074576Y005068D02*
X075380Y005068D01*
X075380Y005109D02*
X074576Y005109D01*
X074576Y005150D02*
X075380Y005150D01*
X075380Y005191D02*
X074576Y005191D01*
X074576Y005232D02*
X075380Y005232D01*
X075380Y005273D02*
X074576Y005273D01*
X074576Y005314D02*
X075380Y005314D01*
X075380Y005355D02*
X074576Y005355D01*
X074576Y005396D02*
X075380Y005396D01*
X075380Y005437D02*
X074576Y005437D01*
X074576Y005478D02*
X075380Y005478D01*
X075380Y005519D02*
X074576Y005519D01*
X074576Y005560D02*
X075380Y005560D01*
X075380Y005601D02*
X074576Y005601D01*
X074576Y005642D02*
X075380Y005642D01*
X076150Y004863D02*
X076954Y004863D01*
X076150Y004863D02*
X076150Y005667D01*
X076954Y005667D01*
X076954Y004863D01*
X076954Y004904D02*
X076150Y004904D01*
X076150Y004945D02*
X076954Y004945D01*
X076954Y004986D02*
X076150Y004986D01*
X076150Y005027D02*
X076954Y005027D01*
X076954Y005068D02*
X076150Y005068D01*
X076150Y005109D02*
X076954Y005109D01*
X076954Y005150D02*
X076150Y005150D01*
X076150Y005191D02*
X076954Y005191D01*
X076954Y005232D02*
X076150Y005232D01*
X076150Y005273D02*
X076954Y005273D01*
X076954Y005314D02*
X076150Y005314D01*
X076150Y005355D02*
X076954Y005355D01*
X076954Y005396D02*
X076150Y005396D01*
X076150Y005437D02*
X076954Y005437D01*
X076954Y005478D02*
X076150Y005478D01*
X076150Y005519D02*
X076954Y005519D01*
X076954Y005560D02*
X076150Y005560D01*
X076150Y005601D02*
X076954Y005601D01*
X076954Y005642D02*
X076150Y005642D01*
X037329Y004863D02*
X036525Y004863D01*
X036525Y005667D01*
X037329Y005667D01*
X037329Y004863D01*
X037329Y004904D02*
X036525Y004904D01*
X036525Y004945D02*
X037329Y004945D01*
X037329Y004986D02*
X036525Y004986D01*
X036525Y005027D02*
X037329Y005027D01*
X037329Y005068D02*
X036525Y005068D01*
X036525Y005109D02*
X037329Y005109D01*
X037329Y005150D02*
X036525Y005150D01*
X036525Y005191D02*
X037329Y005191D01*
X037329Y005232D02*
X036525Y005232D01*
X036525Y005273D02*
X037329Y005273D01*
X037329Y005314D02*
X036525Y005314D01*
X036525Y005355D02*
X037329Y005355D01*
X037329Y005396D02*
X036525Y005396D01*
X036525Y005437D02*
X037329Y005437D01*
X037329Y005478D02*
X036525Y005478D01*
X036525Y005519D02*
X037329Y005519D01*
X037329Y005560D02*
X036525Y005560D01*
X036525Y005601D02*
X037329Y005601D01*
X037329Y005642D02*
X036525Y005642D01*
X035755Y005667D02*
X034951Y005667D01*
X035755Y005667D02*
X035755Y004863D01*
X034951Y004863D01*
X034951Y005667D01*
X034951Y004904D02*
X035755Y004904D01*
X035755Y004945D02*
X034951Y004945D01*
X034951Y004986D02*
X035755Y004986D01*
X035755Y005027D02*
X034951Y005027D01*
X034951Y005068D02*
X035755Y005068D01*
X035755Y005109D02*
X034951Y005109D01*
X034951Y005150D02*
X035755Y005150D01*
X035755Y005191D02*
X034951Y005191D01*
X034951Y005232D02*
X035755Y005232D01*
X035755Y005273D02*
X034951Y005273D01*
X034951Y005314D02*
X035755Y005314D01*
X035755Y005355D02*
X034951Y005355D01*
X034951Y005396D02*
X035755Y005396D01*
X035755Y005437D02*
X034951Y005437D01*
X034951Y005478D02*
X035755Y005478D01*
X035755Y005519D02*
X034951Y005519D01*
X034951Y005560D02*
X035755Y005560D01*
X035755Y005601D02*
X034951Y005601D01*
X034951Y005642D02*
X035755Y005642D01*
X033454Y004863D02*
X032650Y004863D01*
X032650Y005667D01*
X033454Y005667D01*
X033454Y004863D01*
X033454Y004904D02*
X032650Y004904D01*
X032650Y004945D02*
X033454Y004945D01*
X033454Y004986D02*
X032650Y004986D01*
X032650Y005027D02*
X033454Y005027D01*
X033454Y005068D02*
X032650Y005068D01*
X032650Y005109D02*
X033454Y005109D01*
X033454Y005150D02*
X032650Y005150D01*
X032650Y005191D02*
X033454Y005191D01*
X033454Y005232D02*
X032650Y005232D01*
X032650Y005273D02*
X033454Y005273D01*
X033454Y005314D02*
X032650Y005314D01*
X032650Y005355D02*
X033454Y005355D01*
X033454Y005396D02*
X032650Y005396D01*
X032650Y005437D02*
X033454Y005437D01*
X033454Y005478D02*
X032650Y005478D01*
X032650Y005519D02*
X033454Y005519D01*
X033454Y005560D02*
X032650Y005560D01*
X032650Y005601D02*
X033454Y005601D01*
X033454Y005642D02*
X032650Y005642D01*
X031880Y005667D02*
X031076Y005667D01*
X031880Y005667D02*
X031880Y004863D01*
X031076Y004863D01*
X031076Y005667D01*
X031076Y004904D02*
X031880Y004904D01*
X031880Y004945D02*
X031076Y004945D01*
X031076Y004986D02*
X031880Y004986D01*
X031880Y005027D02*
X031076Y005027D01*
X031076Y005068D02*
X031880Y005068D01*
X031880Y005109D02*
X031076Y005109D01*
X031076Y005150D02*
X031880Y005150D01*
X031880Y005191D02*
X031076Y005191D01*
X031076Y005232D02*
X031880Y005232D01*
X031880Y005273D02*
X031076Y005273D01*
X031076Y005314D02*
X031880Y005314D01*
X031880Y005355D02*
X031076Y005355D01*
X031076Y005396D02*
X031880Y005396D01*
X031880Y005437D02*
X031076Y005437D01*
X031076Y005478D02*
X031880Y005478D01*
X031880Y005519D02*
X031076Y005519D01*
X031076Y005560D02*
X031880Y005560D01*
X031880Y005601D02*
X031076Y005601D01*
X031076Y005642D02*
X031880Y005642D01*
X029579Y004863D02*
X028775Y004863D01*
X028775Y005667D01*
X029579Y005667D01*
X029579Y004863D01*
X029579Y004904D02*
X028775Y004904D01*
X028775Y004945D02*
X029579Y004945D01*
X029579Y004986D02*
X028775Y004986D01*
X028775Y005027D02*
X029579Y005027D01*
X029579Y005068D02*
X028775Y005068D01*
X028775Y005109D02*
X029579Y005109D01*
X029579Y005150D02*
X028775Y005150D01*
X028775Y005191D02*
X029579Y005191D01*
X029579Y005232D02*
X028775Y005232D01*
X028775Y005273D02*
X029579Y005273D01*
X029579Y005314D02*
X028775Y005314D01*
X028775Y005355D02*
X029579Y005355D01*
X029579Y005396D02*
X028775Y005396D01*
X028775Y005437D02*
X029579Y005437D01*
X029579Y005478D02*
X028775Y005478D01*
X028775Y005519D02*
X029579Y005519D01*
X029579Y005560D02*
X028775Y005560D01*
X028775Y005601D02*
X029579Y005601D01*
X029579Y005642D02*
X028775Y005642D01*
X028005Y005667D02*
X027201Y005667D01*
X028005Y005667D02*
X028005Y004863D01*
X027201Y004863D01*
X027201Y005667D01*
X027201Y004904D02*
X028005Y004904D01*
X028005Y004945D02*
X027201Y004945D01*
X027201Y004986D02*
X028005Y004986D01*
X028005Y005027D02*
X027201Y005027D01*
X027201Y005068D02*
X028005Y005068D01*
X028005Y005109D02*
X027201Y005109D01*
X027201Y005150D02*
X028005Y005150D01*
X028005Y005191D02*
X027201Y005191D01*
X027201Y005232D02*
X028005Y005232D01*
X028005Y005273D02*
X027201Y005273D01*
X027201Y005314D02*
X028005Y005314D01*
X028005Y005355D02*
X027201Y005355D01*
X027201Y005396D02*
X028005Y005396D01*
X028005Y005437D02*
X027201Y005437D01*
X027201Y005478D02*
X028005Y005478D01*
X028005Y005519D02*
X027201Y005519D01*
X027201Y005560D02*
X028005Y005560D01*
X028005Y005601D02*
X027201Y005601D01*
X027201Y005642D02*
X028005Y005642D01*
X025704Y004863D02*
X024900Y004863D01*
X024900Y005667D01*
X025704Y005667D01*
X025704Y004863D01*
X025704Y004904D02*
X024900Y004904D01*
X024900Y004945D02*
X025704Y004945D01*
X025704Y004986D02*
X024900Y004986D01*
X024900Y005027D02*
X025704Y005027D01*
X025704Y005068D02*
X024900Y005068D01*
X024900Y005109D02*
X025704Y005109D01*
X025704Y005150D02*
X024900Y005150D01*
X024900Y005191D02*
X025704Y005191D01*
X025704Y005232D02*
X024900Y005232D01*
X024900Y005273D02*
X025704Y005273D01*
X025704Y005314D02*
X024900Y005314D01*
X024900Y005355D02*
X025704Y005355D01*
X025704Y005396D02*
X024900Y005396D01*
X024900Y005437D02*
X025704Y005437D01*
X025704Y005478D02*
X024900Y005478D01*
X024900Y005519D02*
X025704Y005519D01*
X025704Y005560D02*
X024900Y005560D01*
X024900Y005601D02*
X025704Y005601D01*
X025704Y005642D02*
X024900Y005642D01*
X024130Y005667D02*
X023326Y005667D01*
X024130Y005667D02*
X024130Y004863D01*
X023326Y004863D01*
X023326Y005667D01*
X023326Y004904D02*
X024130Y004904D01*
X024130Y004945D02*
X023326Y004945D01*
X023326Y004986D02*
X024130Y004986D01*
X024130Y005027D02*
X023326Y005027D01*
X023326Y005068D02*
X024130Y005068D01*
X024130Y005109D02*
X023326Y005109D01*
X023326Y005150D02*
X024130Y005150D01*
X024130Y005191D02*
X023326Y005191D01*
X023326Y005232D02*
X024130Y005232D01*
X024130Y005273D02*
X023326Y005273D01*
X023326Y005314D02*
X024130Y005314D01*
X024130Y005355D02*
X023326Y005355D01*
X023326Y005396D02*
X024130Y005396D01*
X024130Y005437D02*
X023326Y005437D01*
X023326Y005478D02*
X024130Y005478D01*
X024130Y005519D02*
X023326Y005519D01*
X023326Y005560D02*
X024130Y005560D01*
X024130Y005601D02*
X023326Y005601D01*
X023326Y005642D02*
X024130Y005642D01*
X021829Y004863D02*
X021025Y004863D01*
X021025Y005667D01*
X021829Y005667D01*
X021829Y004863D01*
X021829Y004904D02*
X021025Y004904D01*
X021025Y004945D02*
X021829Y004945D01*
X021829Y004986D02*
X021025Y004986D01*
X021025Y005027D02*
X021829Y005027D01*
X021829Y005068D02*
X021025Y005068D01*
X021025Y005109D02*
X021829Y005109D01*
X021829Y005150D02*
X021025Y005150D01*
X021025Y005191D02*
X021829Y005191D01*
X021829Y005232D02*
X021025Y005232D01*
X021025Y005273D02*
X021829Y005273D01*
X021829Y005314D02*
X021025Y005314D01*
X021025Y005355D02*
X021829Y005355D01*
X021829Y005396D02*
X021025Y005396D01*
X021025Y005437D02*
X021829Y005437D01*
X021829Y005478D02*
X021025Y005478D01*
X021025Y005519D02*
X021829Y005519D01*
X021829Y005560D02*
X021025Y005560D01*
X021025Y005601D02*
X021829Y005601D01*
X021829Y005642D02*
X021025Y005642D01*
X020255Y005667D02*
X019451Y005667D01*
X020255Y005667D02*
X020255Y004863D01*
X019451Y004863D01*
X019451Y005667D01*
X019451Y004904D02*
X020255Y004904D01*
X020255Y004945D02*
X019451Y004945D01*
X019451Y004986D02*
X020255Y004986D01*
X020255Y005027D02*
X019451Y005027D01*
X019451Y005068D02*
X020255Y005068D01*
X020255Y005109D02*
X019451Y005109D01*
X019451Y005150D02*
X020255Y005150D01*
X020255Y005191D02*
X019451Y005191D01*
X019451Y005232D02*
X020255Y005232D01*
X020255Y005273D02*
X019451Y005273D01*
X019451Y005314D02*
X020255Y005314D01*
X020255Y005355D02*
X019451Y005355D01*
X019451Y005396D02*
X020255Y005396D01*
X020255Y005437D02*
X019451Y005437D01*
X019451Y005478D02*
X020255Y005478D01*
X020255Y005519D02*
X019451Y005519D01*
X019451Y005560D02*
X020255Y005560D01*
X020255Y005601D02*
X019451Y005601D01*
X019451Y005642D02*
X020255Y005642D01*
X017954Y004863D02*
X017150Y004863D01*
X017150Y005667D01*
X017954Y005667D01*
X017954Y004863D01*
X017954Y004904D02*
X017150Y004904D01*
X017150Y004945D02*
X017954Y004945D01*
X017954Y004986D02*
X017150Y004986D01*
X017150Y005027D02*
X017954Y005027D01*
X017954Y005068D02*
X017150Y005068D01*
X017150Y005109D02*
X017954Y005109D01*
X017954Y005150D02*
X017150Y005150D01*
X017150Y005191D02*
X017954Y005191D01*
X017954Y005232D02*
X017150Y005232D01*
X017150Y005273D02*
X017954Y005273D01*
X017954Y005314D02*
X017150Y005314D01*
X017150Y005355D02*
X017954Y005355D01*
X017954Y005396D02*
X017150Y005396D01*
X017150Y005437D02*
X017954Y005437D01*
X017954Y005478D02*
X017150Y005478D01*
X017150Y005519D02*
X017954Y005519D01*
X017954Y005560D02*
X017150Y005560D01*
X017150Y005601D02*
X017954Y005601D01*
X017954Y005642D02*
X017150Y005642D01*
X016380Y005667D02*
X015576Y005667D01*
X016380Y005667D02*
X016380Y004863D01*
X015576Y004863D01*
X015576Y005667D01*
X015576Y004904D02*
X016380Y004904D01*
X016380Y004945D02*
X015576Y004945D01*
X015576Y004986D02*
X016380Y004986D01*
X016380Y005027D02*
X015576Y005027D01*
X015576Y005068D02*
X016380Y005068D01*
X016380Y005109D02*
X015576Y005109D01*
X015576Y005150D02*
X016380Y005150D01*
X016380Y005191D02*
X015576Y005191D01*
X015576Y005232D02*
X016380Y005232D01*
X016380Y005273D02*
X015576Y005273D01*
X015576Y005314D02*
X016380Y005314D01*
X016380Y005355D02*
X015576Y005355D01*
X015576Y005396D02*
X016380Y005396D01*
X016380Y005437D02*
X015576Y005437D01*
X015576Y005478D02*
X016380Y005478D01*
X016380Y005519D02*
X015576Y005519D01*
X015576Y005560D02*
X016380Y005560D01*
X016380Y005601D02*
X015576Y005601D01*
X015576Y005642D02*
X016380Y005642D01*
X014079Y004863D02*
X013275Y004863D01*
X013275Y005667D01*
X014079Y005667D01*
X014079Y004863D01*
X014079Y004904D02*
X013275Y004904D01*
X013275Y004945D02*
X014079Y004945D01*
X014079Y004986D02*
X013275Y004986D01*
X013275Y005027D02*
X014079Y005027D01*
X014079Y005068D02*
X013275Y005068D01*
X013275Y005109D02*
X014079Y005109D01*
X014079Y005150D02*
X013275Y005150D01*
X013275Y005191D02*
X014079Y005191D01*
X014079Y005232D02*
X013275Y005232D01*
X013275Y005273D02*
X014079Y005273D01*
X014079Y005314D02*
X013275Y005314D01*
X013275Y005355D02*
X014079Y005355D01*
X014079Y005396D02*
X013275Y005396D01*
X013275Y005437D02*
X014079Y005437D01*
X014079Y005478D02*
X013275Y005478D01*
X013275Y005519D02*
X014079Y005519D01*
X014079Y005560D02*
X013275Y005560D01*
X013275Y005601D02*
X014079Y005601D01*
X014079Y005642D02*
X013275Y005642D01*
X012505Y005667D02*
X011701Y005667D01*
X012505Y005667D02*
X012505Y004863D01*
X011701Y004863D01*
X011701Y005667D01*
X011701Y004904D02*
X012505Y004904D01*
X012505Y004945D02*
X011701Y004945D01*
X011701Y004986D02*
X012505Y004986D01*
X012505Y005027D02*
X011701Y005027D01*
X011701Y005068D02*
X012505Y005068D01*
X012505Y005109D02*
X011701Y005109D01*
X011701Y005150D02*
X012505Y005150D01*
X012505Y005191D02*
X011701Y005191D01*
X011701Y005232D02*
X012505Y005232D01*
X012505Y005273D02*
X011701Y005273D01*
X011701Y005314D02*
X012505Y005314D01*
X012505Y005355D02*
X011701Y005355D01*
X011701Y005396D02*
X012505Y005396D01*
X012505Y005437D02*
X011701Y005437D01*
X011701Y005478D02*
X012505Y005478D01*
X012505Y005519D02*
X011701Y005519D01*
X011701Y005560D02*
X012505Y005560D01*
X012505Y005601D02*
X011701Y005601D01*
X011701Y005642D02*
X012505Y005642D01*
X010204Y004863D02*
X009400Y004863D01*
X009400Y005667D01*
X010204Y005667D01*
X010204Y004863D01*
X010204Y004904D02*
X009400Y004904D01*
X009400Y004945D02*
X010204Y004945D01*
X010204Y004986D02*
X009400Y004986D01*
X009400Y005027D02*
X010204Y005027D01*
X010204Y005068D02*
X009400Y005068D01*
X009400Y005109D02*
X010204Y005109D01*
X010204Y005150D02*
X009400Y005150D01*
X009400Y005191D02*
X010204Y005191D01*
X010204Y005232D02*
X009400Y005232D01*
X009400Y005273D02*
X010204Y005273D01*
X010204Y005314D02*
X009400Y005314D01*
X009400Y005355D02*
X010204Y005355D01*
X010204Y005396D02*
X009400Y005396D01*
X009400Y005437D02*
X010204Y005437D01*
X010204Y005478D02*
X009400Y005478D01*
X009400Y005519D02*
X010204Y005519D01*
X010204Y005560D02*
X009400Y005560D01*
X009400Y005601D02*
X010204Y005601D01*
X010204Y005642D02*
X009400Y005642D01*
X008630Y005667D02*
X007826Y005667D01*
X008630Y005667D02*
X008630Y004863D01*
X007826Y004863D01*
X007826Y005667D01*
X007826Y004904D02*
X008630Y004904D01*
X008630Y004945D02*
X007826Y004945D01*
X007826Y004986D02*
X008630Y004986D01*
X008630Y005027D02*
X007826Y005027D01*
X007826Y005068D02*
X008630Y005068D01*
X008630Y005109D02*
X007826Y005109D01*
X007826Y005150D02*
X008630Y005150D01*
X008630Y005191D02*
X007826Y005191D01*
X007826Y005232D02*
X008630Y005232D01*
X008630Y005273D02*
X007826Y005273D01*
X007826Y005314D02*
X008630Y005314D01*
X008630Y005355D02*
X007826Y005355D01*
X007826Y005396D02*
X008630Y005396D01*
X008630Y005437D02*
X007826Y005437D01*
X007826Y005478D02*
X008630Y005478D01*
X008630Y005519D02*
X007826Y005519D01*
X007826Y005560D02*
X008630Y005560D01*
X008630Y005601D02*
X007826Y005601D01*
X007826Y005642D02*
X008630Y005642D01*
D51*
X004787Y004662D03*
X042385Y004662D03*
X079984Y004662D03*
X079984Y020803D03*
X042385Y020803D03*
X004787Y020803D03*
D52*
X008326Y004226D03*
X009704Y004226D03*
X012201Y004226D03*
X013579Y004226D03*
X016076Y004226D03*
X017454Y004226D03*
X019951Y004226D03*
X021329Y004226D03*
X023826Y004226D03*
X025204Y004226D03*
X027701Y004226D03*
X029079Y004226D03*
X031576Y004226D03*
X032954Y004226D03*
X035451Y004226D03*
X036829Y004226D03*
X047954Y004226D03*
X049331Y004226D03*
X051829Y004226D03*
X053206Y004226D03*
X055704Y004226D03*
X057081Y004226D03*
X059579Y004226D03*
X060956Y004226D03*
X063454Y004226D03*
X064831Y004226D03*
X067329Y004226D03*
X068706Y004226D03*
X071204Y004226D03*
X072581Y004226D03*
X075079Y004226D03*
X076456Y004226D03*
X056954Y020429D03*
X055576Y020429D03*
X029204Y020554D03*
X027826Y020554D03*
D53*
X026350Y020554D03*
X030680Y020554D03*
X054100Y020429D03*
X058430Y020429D03*
D54*
X043269Y008864D02*
X043269Y008454D01*
X042761Y008454D01*
X042761Y008864D01*
X043269Y008864D01*
X043269Y008498D02*
X042761Y008498D01*
X042761Y008542D02*
X043269Y008542D01*
X043269Y008586D02*
X042761Y008586D01*
X042761Y008630D02*
X043269Y008630D01*
X043269Y008674D02*
X042761Y008674D01*
X042761Y008718D02*
X043269Y008718D01*
X043269Y008762D02*
X042761Y008762D01*
X042761Y008806D02*
X043269Y008806D01*
X043269Y008850D02*
X042761Y008850D01*
X043269Y008076D02*
X043269Y007666D01*
X042761Y007666D01*
X042761Y008076D01*
X043269Y008076D01*
X043269Y007710D02*
X042761Y007710D01*
X042761Y007754D02*
X043269Y007754D01*
X043269Y007798D02*
X042761Y007798D01*
X042761Y007842D02*
X043269Y007842D01*
X043269Y007886D02*
X042761Y007886D01*
X042761Y007930D02*
X043269Y007930D01*
X043269Y007974D02*
X042761Y007974D01*
X042761Y008018D02*
X043269Y008018D01*
X043269Y008062D02*
X042761Y008062D01*
D55*
X043162Y009572D02*
X043548Y009572D01*
X043162Y009572D02*
X043162Y009958D01*
X043548Y009958D01*
X043548Y009572D01*
X043548Y009619D02*
X043162Y009619D01*
X043162Y009666D02*
X043548Y009666D01*
X043548Y009713D02*
X043162Y009713D01*
X043162Y009760D02*
X043548Y009760D01*
X043548Y009807D02*
X043162Y009807D01*
X043162Y009854D02*
X043548Y009854D01*
X043548Y009901D02*
X043162Y009901D01*
X043162Y009948D02*
X043548Y009948D01*
X043732Y009572D02*
X044118Y009572D01*
X043732Y009572D02*
X043732Y009958D01*
X044118Y009958D01*
X044118Y009572D01*
X044118Y009619D02*
X043732Y009619D01*
X043732Y009666D02*
X044118Y009666D01*
X044118Y009713D02*
X043732Y009713D01*
X043732Y009760D02*
X044118Y009760D01*
X044118Y009807D02*
X043732Y009807D01*
X043732Y009854D02*
X044118Y009854D01*
X044118Y009901D02*
X043732Y009901D01*
X043732Y009948D02*
X044118Y009948D01*
X044118Y010197D02*
X043732Y010197D01*
X043732Y010583D01*
X044118Y010583D01*
X044118Y010197D01*
X044118Y010244D02*
X043732Y010244D01*
X043732Y010291D02*
X044118Y010291D01*
X044118Y010338D02*
X043732Y010338D01*
X043732Y010385D02*
X044118Y010385D01*
X044118Y010432D02*
X043732Y010432D01*
X043732Y010479D02*
X044118Y010479D01*
X044118Y010526D02*
X043732Y010526D01*
X043732Y010573D02*
X044118Y010573D01*
X043548Y010197D02*
X043162Y010197D01*
X043162Y010583D01*
X043548Y010583D01*
X043548Y010197D01*
X043548Y010244D02*
X043162Y010244D01*
X043162Y010291D02*
X043548Y010291D01*
X043548Y010338D02*
X043162Y010338D01*
X043162Y010385D02*
X043548Y010385D01*
X043548Y010432D02*
X043162Y010432D01*
X043162Y010479D02*
X043548Y010479D01*
X043548Y010526D02*
X043162Y010526D01*
X043162Y010573D02*
X043548Y010573D01*
X039708Y019662D02*
X039708Y020048D01*
X039708Y019662D02*
X039322Y019662D01*
X039322Y020048D01*
X039708Y020048D01*
X039708Y019709D02*
X039322Y019709D01*
X039322Y019756D02*
X039708Y019756D01*
X039708Y019803D02*
X039322Y019803D01*
X039322Y019850D02*
X039708Y019850D01*
X039708Y019897D02*
X039322Y019897D01*
X039322Y019944D02*
X039708Y019944D01*
X039708Y019991D02*
X039322Y019991D01*
X039322Y020038D02*
X039708Y020038D01*
X039708Y020232D02*
X039708Y020618D01*
X039708Y020232D02*
X039322Y020232D01*
X039322Y020618D01*
X039708Y020618D01*
X039708Y020279D02*
X039322Y020279D01*
X039322Y020326D02*
X039708Y020326D01*
X039708Y020373D02*
X039322Y020373D01*
X039322Y020420D02*
X039708Y020420D01*
X039708Y020467D02*
X039322Y020467D01*
X039322Y020514D02*
X039708Y020514D01*
X039708Y020561D02*
X039322Y020561D01*
X039322Y020608D02*
X039708Y020608D01*
X038708Y020618D02*
X038708Y020232D01*
X038322Y020232D01*
X038322Y020618D01*
X038708Y020618D01*
X038708Y020279D02*
X038322Y020279D01*
X038322Y020326D02*
X038708Y020326D01*
X038708Y020373D02*
X038322Y020373D01*
X038322Y020420D02*
X038708Y020420D01*
X038708Y020467D02*
X038322Y020467D01*
X038322Y020514D02*
X038708Y020514D01*
X038708Y020561D02*
X038322Y020561D01*
X038322Y020608D02*
X038708Y020608D01*
X037708Y020618D02*
X037708Y020232D01*
X037322Y020232D01*
X037322Y020618D01*
X037708Y020618D01*
X037708Y020279D02*
X037322Y020279D01*
X037322Y020326D02*
X037708Y020326D01*
X037708Y020373D02*
X037322Y020373D01*
X037322Y020420D02*
X037708Y020420D01*
X037708Y020467D02*
X037322Y020467D01*
X037322Y020514D02*
X037708Y020514D01*
X037708Y020561D02*
X037322Y020561D01*
X037322Y020608D02*
X037708Y020608D01*
X036708Y020618D02*
X036708Y020232D01*
X036322Y020232D01*
X036322Y020618D01*
X036708Y020618D01*
X036708Y020279D02*
X036322Y020279D01*
X036322Y020326D02*
X036708Y020326D01*
X036708Y020373D02*
X036322Y020373D01*
X036322Y020420D02*
X036708Y020420D01*
X036708Y020467D02*
X036322Y020467D01*
X036322Y020514D02*
X036708Y020514D01*
X036708Y020561D02*
X036322Y020561D01*
X036322Y020608D02*
X036708Y020608D01*
X035708Y020618D02*
X035708Y020232D01*
X035322Y020232D01*
X035322Y020618D01*
X035708Y020618D01*
X035708Y020279D02*
X035322Y020279D01*
X035322Y020326D02*
X035708Y020326D01*
X035708Y020373D02*
X035322Y020373D01*
X035322Y020420D02*
X035708Y020420D01*
X035708Y020467D02*
X035322Y020467D01*
X035322Y020514D02*
X035708Y020514D01*
X035708Y020561D02*
X035322Y020561D01*
X035322Y020608D02*
X035708Y020608D01*
X034708Y020618D02*
X034708Y020232D01*
X034322Y020232D01*
X034322Y020618D01*
X034708Y020618D01*
X034708Y020279D02*
X034322Y020279D01*
X034322Y020326D02*
X034708Y020326D01*
X034708Y020373D02*
X034322Y020373D01*
X034322Y020420D02*
X034708Y020420D01*
X034708Y020467D02*
X034322Y020467D01*
X034322Y020514D02*
X034708Y020514D01*
X034708Y020561D02*
X034322Y020561D01*
X034322Y020608D02*
X034708Y020608D01*
X033708Y020618D02*
X033708Y020232D01*
X033322Y020232D01*
X033322Y020618D01*
X033708Y020618D01*
X033708Y020279D02*
X033322Y020279D01*
X033322Y020326D02*
X033708Y020326D01*
X033708Y020373D02*
X033322Y020373D01*
X033322Y020420D02*
X033708Y020420D01*
X033708Y020467D02*
X033322Y020467D01*
X033322Y020514D02*
X033708Y020514D01*
X033708Y020561D02*
X033322Y020561D01*
X033322Y020608D02*
X033708Y020608D01*
X033708Y020048D02*
X033708Y019662D01*
X033322Y019662D01*
X033322Y020048D01*
X033708Y020048D01*
X033708Y019709D02*
X033322Y019709D01*
X033322Y019756D02*
X033708Y019756D01*
X033708Y019803D02*
X033322Y019803D01*
X033322Y019850D02*
X033708Y019850D01*
X033708Y019897D02*
X033322Y019897D01*
X033322Y019944D02*
X033708Y019944D01*
X033708Y019991D02*
X033322Y019991D01*
X033322Y020038D02*
X033708Y020038D01*
X034708Y020048D02*
X034708Y019662D01*
X034322Y019662D01*
X034322Y020048D01*
X034708Y020048D01*
X034708Y019709D02*
X034322Y019709D01*
X034322Y019756D02*
X034708Y019756D01*
X034708Y019803D02*
X034322Y019803D01*
X034322Y019850D02*
X034708Y019850D01*
X034708Y019897D02*
X034322Y019897D01*
X034322Y019944D02*
X034708Y019944D01*
X034708Y019991D02*
X034322Y019991D01*
X034322Y020038D02*
X034708Y020038D01*
X035708Y020048D02*
X035708Y019662D01*
X035322Y019662D01*
X035322Y020048D01*
X035708Y020048D01*
X035708Y019709D02*
X035322Y019709D01*
X035322Y019756D02*
X035708Y019756D01*
X035708Y019803D02*
X035322Y019803D01*
X035322Y019850D02*
X035708Y019850D01*
X035708Y019897D02*
X035322Y019897D01*
X035322Y019944D02*
X035708Y019944D01*
X035708Y019991D02*
X035322Y019991D01*
X035322Y020038D02*
X035708Y020038D01*
X036708Y020048D02*
X036708Y019662D01*
X036322Y019662D01*
X036322Y020048D01*
X036708Y020048D01*
X036708Y019709D02*
X036322Y019709D01*
X036322Y019756D02*
X036708Y019756D01*
X036708Y019803D02*
X036322Y019803D01*
X036322Y019850D02*
X036708Y019850D01*
X036708Y019897D02*
X036322Y019897D01*
X036322Y019944D02*
X036708Y019944D01*
X036708Y019991D02*
X036322Y019991D01*
X036322Y020038D02*
X036708Y020038D01*
X037708Y020048D02*
X037708Y019662D01*
X037322Y019662D01*
X037322Y020048D01*
X037708Y020048D01*
X037708Y019709D02*
X037322Y019709D01*
X037322Y019756D02*
X037708Y019756D01*
X037708Y019803D02*
X037322Y019803D01*
X037322Y019850D02*
X037708Y019850D01*
X037708Y019897D02*
X037322Y019897D01*
X037322Y019944D02*
X037708Y019944D01*
X037708Y019991D02*
X037322Y019991D01*
X037322Y020038D02*
X037708Y020038D01*
X038708Y020048D02*
X038708Y019662D01*
X038322Y019662D01*
X038322Y020048D01*
X038708Y020048D01*
X038708Y019709D02*
X038322Y019709D01*
X038322Y019756D02*
X038708Y019756D01*
X038708Y019803D02*
X038322Y019803D01*
X038322Y019850D02*
X038708Y019850D01*
X038708Y019897D02*
X038322Y019897D01*
X038322Y019944D02*
X038708Y019944D01*
X038708Y019991D02*
X038322Y019991D01*
X038322Y020038D02*
X038708Y020038D01*
D56*
X046390Y020265D03*
X047390Y020265D03*
X048390Y020265D03*
X049390Y020265D03*
X050390Y020265D03*
X050390Y021265D03*
X049390Y021265D03*
X048390Y021265D03*
X047390Y021265D03*
X046390Y021265D03*
D57*
X045483Y021140D02*
X045483Y020814D01*
X045483Y021140D02*
X045809Y021140D01*
X045809Y020814D01*
X045483Y020814D01*
X045483Y020862D02*
X045809Y020862D01*
X045809Y020910D02*
X045483Y020910D01*
X045483Y020958D02*
X045809Y020958D01*
X045809Y021006D02*
X045483Y021006D01*
X045483Y021054D02*
X045809Y021054D01*
X045809Y021102D02*
X045483Y021102D01*
X045483Y020549D02*
X045483Y020223D01*
X045483Y020549D02*
X045809Y020549D01*
X045809Y020223D01*
X045483Y020223D01*
X045483Y020271D02*
X045809Y020271D01*
X045809Y020319D02*
X045483Y020319D01*
X045483Y020367D02*
X045809Y020367D01*
X045809Y020415D02*
X045483Y020415D01*
X045483Y020463D02*
X045809Y020463D01*
X045809Y020511D02*
X045483Y020511D01*
X046162Y018976D02*
X046162Y018650D01*
X046162Y018976D02*
X046488Y018976D01*
X046488Y018650D01*
X046162Y018650D01*
X046162Y018698D02*
X046488Y018698D01*
X046488Y018746D02*
X046162Y018746D01*
X046162Y018794D02*
X046488Y018794D01*
X046488Y018842D02*
X046162Y018842D01*
X046162Y018890D02*
X046488Y018890D01*
X046488Y018938D02*
X046162Y018938D01*
X046162Y018385D02*
X046162Y018059D01*
X046162Y018385D02*
X046488Y018385D01*
X046488Y018059D01*
X046162Y018059D01*
X046162Y018107D02*
X046488Y018107D01*
X046488Y018155D02*
X046162Y018155D01*
X046162Y018203D02*
X046488Y018203D01*
X046488Y018251D02*
X046162Y018251D01*
X046162Y018299D02*
X046488Y018299D01*
X046488Y018347D02*
X046162Y018347D01*
X050678Y009348D02*
X050678Y009022D01*
X050352Y009022D01*
X050352Y009348D01*
X050678Y009348D01*
X050678Y009070D02*
X050352Y009070D01*
X050352Y009118D02*
X050678Y009118D01*
X050678Y009166D02*
X050352Y009166D01*
X050352Y009214D02*
X050678Y009214D01*
X050678Y009262D02*
X050352Y009262D01*
X050352Y009310D02*
X050678Y009310D01*
X050678Y008758D02*
X050678Y008432D01*
X050352Y008432D01*
X050352Y008758D01*
X050678Y008758D01*
X050678Y008480D02*
X050352Y008480D01*
X050352Y008528D02*
X050678Y008528D01*
X050678Y008576D02*
X050352Y008576D01*
X050352Y008624D02*
X050678Y008624D01*
X050678Y008672D02*
X050352Y008672D01*
X050352Y008720D02*
X050678Y008720D01*
X054678Y008758D02*
X054678Y008432D01*
X054352Y008432D01*
X054352Y008758D01*
X054678Y008758D01*
X054678Y008480D02*
X054352Y008480D01*
X054352Y008528D02*
X054678Y008528D01*
X054678Y008576D02*
X054352Y008576D01*
X054352Y008624D02*
X054678Y008624D01*
X054678Y008672D02*
X054352Y008672D01*
X054352Y008720D02*
X054678Y008720D01*
X054678Y009022D02*
X054678Y009348D01*
X054678Y009022D02*
X054352Y009022D01*
X054352Y009348D01*
X054678Y009348D01*
X054678Y009070D02*
X054352Y009070D01*
X054352Y009118D02*
X054678Y009118D01*
X054678Y009166D02*
X054352Y009166D01*
X054352Y009214D02*
X054678Y009214D01*
X054678Y009262D02*
X054352Y009262D01*
X054352Y009310D02*
X054678Y009310D01*
X058428Y009348D02*
X058428Y009022D01*
X058102Y009022D01*
X058102Y009348D01*
X058428Y009348D01*
X058428Y009070D02*
X058102Y009070D01*
X058102Y009118D02*
X058428Y009118D01*
X058428Y009166D02*
X058102Y009166D01*
X058102Y009214D02*
X058428Y009214D01*
X058428Y009262D02*
X058102Y009262D01*
X058102Y009310D02*
X058428Y009310D01*
X058428Y008758D02*
X058428Y008432D01*
X058102Y008432D01*
X058102Y008758D01*
X058428Y008758D01*
X058428Y008480D02*
X058102Y008480D01*
X058102Y008528D02*
X058428Y008528D01*
X058428Y008576D02*
X058102Y008576D01*
X058102Y008624D02*
X058428Y008624D01*
X058428Y008672D02*
X058102Y008672D01*
X058102Y008720D02*
X058428Y008720D01*
X062428Y008758D02*
X062428Y008432D01*
X062102Y008432D01*
X062102Y008758D01*
X062428Y008758D01*
X062428Y008480D02*
X062102Y008480D01*
X062102Y008528D02*
X062428Y008528D01*
X062428Y008576D02*
X062102Y008576D01*
X062102Y008624D02*
X062428Y008624D01*
X062428Y008672D02*
X062102Y008672D01*
X062102Y008720D02*
X062428Y008720D01*
X062428Y009022D02*
X062428Y009348D01*
X062428Y009022D02*
X062102Y009022D01*
X062102Y009348D01*
X062428Y009348D01*
X062428Y009070D02*
X062102Y009070D01*
X062102Y009118D02*
X062428Y009118D01*
X062428Y009166D02*
X062102Y009166D01*
X062102Y009214D02*
X062428Y009214D01*
X062428Y009262D02*
X062102Y009262D01*
X062102Y009310D02*
X062428Y009310D01*
X066218Y009348D02*
X066218Y009022D01*
X065892Y009022D01*
X065892Y009348D01*
X066218Y009348D01*
X066218Y009070D02*
X065892Y009070D01*
X065892Y009118D02*
X066218Y009118D01*
X066218Y009166D02*
X065892Y009166D01*
X065892Y009214D02*
X066218Y009214D01*
X066218Y009262D02*
X065892Y009262D01*
X065892Y009310D02*
X066218Y009310D01*
X066218Y008758D02*
X066218Y008432D01*
X065892Y008432D01*
X065892Y008758D01*
X066218Y008758D01*
X066218Y008480D02*
X065892Y008480D01*
X065892Y008528D02*
X066218Y008528D01*
X066218Y008576D02*
X065892Y008576D01*
X065892Y008624D02*
X066218Y008624D01*
X066218Y008672D02*
X065892Y008672D01*
X065892Y008720D02*
X066218Y008720D01*
X070108Y008758D02*
X070108Y008432D01*
X069782Y008432D01*
X069782Y008758D01*
X070108Y008758D01*
X070108Y008480D02*
X069782Y008480D01*
X069782Y008528D02*
X070108Y008528D01*
X070108Y008576D02*
X069782Y008576D01*
X069782Y008624D02*
X070108Y008624D01*
X070108Y008672D02*
X069782Y008672D01*
X069782Y008720D02*
X070108Y008720D01*
X070108Y009022D02*
X070108Y009348D01*
X070108Y009022D02*
X069782Y009022D01*
X069782Y009348D01*
X070108Y009348D01*
X070108Y009070D02*
X069782Y009070D01*
X069782Y009118D02*
X070108Y009118D01*
X070108Y009166D02*
X069782Y009166D01*
X069782Y009214D02*
X070108Y009214D01*
X070108Y009262D02*
X069782Y009262D01*
X069782Y009310D02*
X070108Y009310D01*
X073928Y009348D02*
X073928Y009022D01*
X073602Y009022D01*
X073602Y009348D01*
X073928Y009348D01*
X073928Y009070D02*
X073602Y009070D01*
X073602Y009118D02*
X073928Y009118D01*
X073928Y009166D02*
X073602Y009166D01*
X073602Y009214D02*
X073928Y009214D01*
X073928Y009262D02*
X073602Y009262D01*
X073602Y009310D02*
X073928Y009310D01*
X073928Y008758D02*
X073928Y008432D01*
X073602Y008432D01*
X073602Y008758D01*
X073928Y008758D01*
X073928Y008480D02*
X073602Y008480D01*
X073602Y008528D02*
X073928Y008528D01*
X073928Y008576D02*
X073602Y008576D01*
X073602Y008624D02*
X073928Y008624D01*
X073928Y008672D02*
X073602Y008672D01*
X073602Y008720D02*
X073928Y008720D01*
X077928Y008758D02*
X077928Y008432D01*
X077602Y008432D01*
X077602Y008758D01*
X077928Y008758D01*
X077928Y008480D02*
X077602Y008480D01*
X077602Y008528D02*
X077928Y008528D01*
X077928Y008576D02*
X077602Y008576D01*
X077602Y008624D02*
X077928Y008624D01*
X077928Y008672D02*
X077602Y008672D01*
X077602Y008720D02*
X077928Y008720D01*
X077928Y009022D02*
X077928Y009348D01*
X077928Y009022D02*
X077602Y009022D01*
X077602Y009348D01*
X077928Y009348D01*
X077928Y009070D02*
X077602Y009070D01*
X077602Y009118D02*
X077928Y009118D01*
X077928Y009166D02*
X077602Y009166D01*
X077602Y009214D02*
X077928Y009214D01*
X077928Y009262D02*
X077602Y009262D01*
X077602Y009310D02*
X077928Y009310D01*
X034367Y009348D02*
X034367Y009022D01*
X034041Y009022D01*
X034041Y009348D01*
X034367Y009348D01*
X034367Y009070D02*
X034041Y009070D01*
X034041Y009118D02*
X034367Y009118D01*
X034367Y009166D02*
X034041Y009166D01*
X034041Y009214D02*
X034367Y009214D01*
X034367Y009262D02*
X034041Y009262D01*
X034041Y009310D02*
X034367Y009310D01*
X034367Y008758D02*
X034367Y008432D01*
X034041Y008432D01*
X034041Y008758D01*
X034367Y008758D01*
X034367Y008480D02*
X034041Y008480D01*
X034041Y008528D02*
X034367Y008528D01*
X034367Y008576D02*
X034041Y008576D01*
X034041Y008624D02*
X034367Y008624D01*
X034367Y008672D02*
X034041Y008672D01*
X034041Y008720D02*
X034367Y008720D01*
X030489Y008758D02*
X030489Y008432D01*
X030163Y008432D01*
X030163Y008758D01*
X030489Y008758D01*
X030489Y008480D02*
X030163Y008480D01*
X030163Y008528D02*
X030489Y008528D01*
X030489Y008576D02*
X030163Y008576D01*
X030163Y008624D02*
X030489Y008624D01*
X030489Y008672D02*
X030163Y008672D01*
X030163Y008720D02*
X030489Y008720D01*
X030489Y009022D02*
X030489Y009348D01*
X030489Y009022D02*
X030163Y009022D01*
X030163Y009348D01*
X030489Y009348D01*
X030489Y009070D02*
X030163Y009070D01*
X030163Y009118D02*
X030489Y009118D01*
X030489Y009166D02*
X030163Y009166D01*
X030163Y009214D02*
X030489Y009214D01*
X030489Y009262D02*
X030163Y009262D01*
X030163Y009310D02*
X030489Y009310D01*
X026617Y009348D02*
X026617Y009022D01*
X026291Y009022D01*
X026291Y009348D01*
X026617Y009348D01*
X026617Y009070D02*
X026291Y009070D01*
X026291Y009118D02*
X026617Y009118D01*
X026617Y009166D02*
X026291Y009166D01*
X026291Y009214D02*
X026617Y009214D01*
X026617Y009262D02*
X026291Y009262D01*
X026291Y009310D02*
X026617Y009310D01*
X026617Y008758D02*
X026617Y008432D01*
X026291Y008432D01*
X026291Y008758D01*
X026617Y008758D01*
X026617Y008480D02*
X026291Y008480D01*
X026291Y008528D02*
X026617Y008528D01*
X026617Y008576D02*
X026291Y008576D01*
X026291Y008624D02*
X026617Y008624D01*
X026617Y008672D02*
X026291Y008672D01*
X026291Y008720D02*
X026617Y008720D01*
X022739Y008758D02*
X022739Y008432D01*
X022413Y008432D01*
X022413Y008758D01*
X022739Y008758D01*
X022739Y008480D02*
X022413Y008480D01*
X022413Y008528D02*
X022739Y008528D01*
X022739Y008576D02*
X022413Y008576D01*
X022413Y008624D02*
X022739Y008624D01*
X022739Y008672D02*
X022413Y008672D01*
X022413Y008720D02*
X022739Y008720D01*
X022739Y009022D02*
X022739Y009348D01*
X022739Y009022D02*
X022413Y009022D01*
X022413Y009348D01*
X022739Y009348D01*
X022739Y009070D02*
X022413Y009070D01*
X022413Y009118D02*
X022739Y009118D01*
X022739Y009166D02*
X022413Y009166D01*
X022413Y009214D02*
X022739Y009214D01*
X022739Y009262D02*
X022413Y009262D01*
X022413Y009310D02*
X022739Y009310D01*
X018867Y009348D02*
X018867Y009022D01*
X018541Y009022D01*
X018541Y009348D01*
X018867Y009348D01*
X018867Y009070D02*
X018541Y009070D01*
X018541Y009118D02*
X018867Y009118D01*
X018867Y009166D02*
X018541Y009166D01*
X018541Y009214D02*
X018867Y009214D01*
X018867Y009262D02*
X018541Y009262D01*
X018541Y009310D02*
X018867Y009310D01*
X018867Y008758D02*
X018867Y008432D01*
X018541Y008432D01*
X018541Y008758D01*
X018867Y008758D01*
X018867Y008480D02*
X018541Y008480D01*
X018541Y008528D02*
X018867Y008528D01*
X018867Y008576D02*
X018541Y008576D01*
X018541Y008624D02*
X018867Y008624D01*
X018867Y008672D02*
X018541Y008672D01*
X018541Y008720D02*
X018867Y008720D01*
X014989Y008758D02*
X014989Y008432D01*
X014663Y008432D01*
X014663Y008758D01*
X014989Y008758D01*
X014989Y008480D02*
X014663Y008480D01*
X014663Y008528D02*
X014989Y008528D01*
X014989Y008576D02*
X014663Y008576D01*
X014663Y008624D02*
X014989Y008624D01*
X014989Y008672D02*
X014663Y008672D01*
X014663Y008720D02*
X014989Y008720D01*
X014989Y009022D02*
X014989Y009348D01*
X014989Y009022D02*
X014663Y009022D01*
X014663Y009348D01*
X014989Y009348D01*
X014989Y009070D02*
X014663Y009070D01*
X014663Y009118D02*
X014989Y009118D01*
X014989Y009166D02*
X014663Y009166D01*
X014663Y009214D02*
X014989Y009214D01*
X014989Y009262D02*
X014663Y009262D01*
X014663Y009310D02*
X014989Y009310D01*
X011117Y009348D02*
X011117Y009022D01*
X010791Y009022D01*
X010791Y009348D01*
X011117Y009348D01*
X011117Y009070D02*
X010791Y009070D01*
X010791Y009118D02*
X011117Y009118D01*
X011117Y009166D02*
X010791Y009166D01*
X010791Y009214D02*
X011117Y009214D01*
X011117Y009262D02*
X010791Y009262D01*
X010791Y009310D02*
X011117Y009310D01*
X011117Y008758D02*
X011117Y008432D01*
X010791Y008432D01*
X010791Y008758D01*
X011117Y008758D01*
X011117Y008480D02*
X010791Y008480D01*
X010791Y008528D02*
X011117Y008528D01*
X011117Y008576D02*
X010791Y008576D01*
X010791Y008624D02*
X011117Y008624D01*
X011117Y008672D02*
X010791Y008672D01*
X010791Y008720D02*
X011117Y008720D01*
X007428Y008758D02*
X007428Y008432D01*
X007102Y008432D01*
X007102Y008758D01*
X007428Y008758D01*
X007428Y008480D02*
X007102Y008480D01*
X007102Y008528D02*
X007428Y008528D01*
X007428Y008576D02*
X007102Y008576D01*
X007102Y008624D02*
X007428Y008624D01*
X007428Y008672D02*
X007102Y008672D01*
X007102Y008720D02*
X007428Y008720D01*
X007428Y009022D02*
X007428Y009348D01*
X007428Y009022D02*
X007102Y009022D01*
X007102Y009348D01*
X007428Y009348D01*
X007428Y009070D02*
X007102Y009070D01*
X007102Y009118D02*
X007428Y009118D01*
X007428Y009166D02*
X007102Y009166D01*
X007102Y009214D02*
X007428Y009214D01*
X007428Y009262D02*
X007102Y009262D01*
X007102Y009310D02*
X007428Y009310D01*
D58*
X029765Y018390D03*
X031765Y018390D03*
X053015Y018640D03*
X055015Y018640D03*
D59*
X075165Y014890D03*
X078365Y014890D03*
X009615Y014890D03*
X006415Y014890D03*
D60*
X006415Y013540D03*
X009615Y013540D03*
X009615Y016240D03*
X006415Y016240D03*
X075165Y016240D03*
X078365Y016240D03*
X078365Y013540D03*
X075165Y013540D03*
D61*
X045015Y006640D03*
X045015Y005640D03*
X045015Y004640D03*
D62*
X066515Y014406D03*
X071015Y014406D03*
X071015Y016374D03*
X068765Y017906D03*
X064265Y017906D03*
X066515Y016374D03*
X073265Y017906D03*
X073265Y019874D03*
X068765Y019874D03*
X064265Y019874D03*
X020515Y019874D03*
X016015Y019874D03*
X011515Y019874D03*
X011515Y017906D03*
X016015Y017906D03*
X013765Y016374D03*
X018265Y016374D03*
X020515Y017906D03*
X018265Y014406D03*
X013765Y014406D03*
D63*
X033515Y018683D02*
X033515Y019097D01*
X034515Y019097D02*
X034515Y018683D01*
X035515Y018683D02*
X035515Y019097D01*
X036515Y019097D02*
X036515Y018683D01*
X037515Y018683D02*
X037515Y019097D01*
X038515Y019097D02*
X038515Y018683D01*
X039515Y018683D02*
X039515Y019097D01*
X039515Y021683D02*
X039515Y022097D01*
X038515Y022097D02*
X038515Y021683D01*
X037515Y021683D02*
X037515Y022097D01*
X036515Y022097D02*
X036515Y021683D01*
X035515Y021683D02*
X035515Y022097D01*
X034515Y022097D02*
X034515Y021683D01*
X033515Y021683D02*
X033515Y022097D01*
D64*
X007390Y021765D03*
X003765Y018140D03*
X077265Y021765D03*
X080890Y018140D03*
M02*
