G75*
G70*
%OFA0B0*%
%FSLAX24Y24*%
%IPPOS*%
%LPD*%
%AMOC8*
5,1,8,0,0,1.08239X$1,22.5*
%
%ADD10C,0.0030*%
%ADD11C,0.0080*%
%ADD12C,0.0050*%
D10*
X047041Y021709D02*
X047041Y021889D01*
X047131Y021979D01*
X047221Y021889D01*
X047221Y021709D01*
X047317Y021754D02*
X047317Y021934D01*
X047362Y021979D01*
X047498Y021979D01*
X047498Y021709D01*
X047362Y021709D01*
X047317Y021754D01*
X047221Y021844D02*
X047041Y021844D01*
X047594Y021799D02*
X047594Y021754D01*
X047639Y021709D01*
X047729Y021709D01*
X047774Y021754D01*
X047729Y021844D02*
X047639Y021844D01*
X047594Y021799D01*
X047594Y021934D02*
X047639Y021979D01*
X047729Y021979D01*
X047774Y021934D01*
X047774Y021889D01*
X047729Y021844D01*
X048021Y021709D02*
X048201Y021709D01*
X048201Y021979D01*
X048297Y021934D02*
X048342Y021979D01*
X048432Y021979D01*
X048478Y021934D01*
X048478Y021754D01*
X048432Y021709D01*
X048342Y021709D01*
X048297Y021754D01*
X048574Y021754D02*
X048619Y021709D01*
X048709Y021709D01*
X048754Y021754D01*
X048709Y021844D02*
X048619Y021844D01*
X048574Y021799D01*
X048574Y021754D01*
X048709Y021844D02*
X048754Y021889D01*
X048754Y021934D01*
X048709Y021979D01*
X048619Y021979D01*
X048574Y021934D01*
X050054Y022039D02*
X050606Y022039D01*
X050546Y021979D02*
X050591Y021934D01*
X050591Y021754D01*
X050546Y021709D01*
X050456Y021709D01*
X050411Y021754D01*
X050411Y021934D01*
X050456Y021979D01*
X050546Y021979D01*
X050315Y021979D02*
X050315Y021709D01*
X050135Y021709D01*
X050225Y021844D02*
X050315Y021844D01*
X050315Y021979D02*
X050135Y021979D01*
D11*
X009921Y004694D02*
X008109Y004694D01*
X008109Y004753D01*
X009251Y004871D02*
X009251Y005659D01*
X009921Y005777D02*
X009921Y005836D01*
X008109Y005836D01*
X008109Y005777D01*
X009921Y004753D02*
X009921Y004694D01*
X011984Y004694D02*
X013796Y004694D01*
X013796Y004753D01*
X013126Y004871D02*
X013126Y005659D01*
X013796Y005777D02*
X013796Y005836D01*
X011984Y005836D01*
X011984Y005777D01*
X011984Y004753D02*
X011984Y004694D01*
X015859Y004694D02*
X017671Y004694D01*
X017671Y004753D01*
X017001Y004871D02*
X017001Y005659D01*
X017671Y005777D02*
X017671Y005836D01*
X015859Y005836D01*
X015859Y005777D01*
X015859Y004753D02*
X015859Y004694D01*
X019734Y004694D02*
X021546Y004694D01*
X021546Y004753D01*
X020876Y004871D02*
X020876Y005659D01*
X021546Y005777D02*
X021546Y005836D01*
X019734Y005836D01*
X019734Y005777D01*
X019734Y004753D02*
X019734Y004694D01*
X023609Y004694D02*
X025421Y004694D01*
X025421Y004753D01*
X024751Y004871D02*
X024751Y005659D01*
X025421Y005777D02*
X025421Y005836D01*
X023609Y005836D01*
X023609Y005777D01*
X023609Y004753D02*
X023609Y004694D01*
X027484Y004694D02*
X029296Y004694D01*
X029296Y004753D01*
X028626Y004871D02*
X028626Y005659D01*
X029296Y005777D02*
X029296Y005836D01*
X027484Y005836D01*
X027484Y005777D01*
X027484Y004753D02*
X027484Y004694D01*
X031359Y004694D02*
X033171Y004694D01*
X033171Y004753D01*
X032501Y004871D02*
X032501Y005659D01*
X033171Y005777D02*
X033171Y005836D01*
X031359Y005836D01*
X031359Y005777D01*
X031359Y004753D02*
X031359Y004694D01*
X035234Y004694D02*
X037046Y004694D01*
X037046Y004753D01*
X036376Y004871D02*
X036376Y005659D01*
X037046Y005777D02*
X037046Y005836D01*
X035234Y005836D01*
X035234Y005777D01*
X035234Y004753D02*
X035234Y004694D01*
X047737Y004699D02*
X049548Y004699D01*
X049548Y004758D01*
X048879Y004876D02*
X048879Y005664D01*
X049548Y005782D02*
X049548Y005841D01*
X047737Y005841D01*
X047737Y005782D01*
X047737Y004758D02*
X047737Y004699D01*
X051614Y004694D02*
X053426Y004694D01*
X053426Y004753D01*
X052756Y004871D02*
X052756Y005659D01*
X053426Y005777D02*
X053426Y005836D01*
X051614Y005836D01*
X051614Y005777D01*
X051614Y004753D02*
X051614Y004694D01*
X055487Y004694D02*
X057298Y004694D01*
X057298Y004753D01*
X056629Y004871D02*
X056629Y005659D01*
X057298Y005777D02*
X057298Y005836D01*
X055487Y005836D01*
X055487Y005777D01*
X055487Y004753D02*
X055487Y004694D01*
X059359Y004694D02*
X061171Y004694D01*
X061171Y004753D01*
X060501Y004871D02*
X060501Y005659D01*
X061171Y005777D02*
X061171Y005836D01*
X059359Y005836D01*
X059359Y005777D01*
X059359Y004753D02*
X059359Y004694D01*
X063237Y004694D02*
X065048Y004694D01*
X065048Y004753D01*
X064379Y004871D02*
X064379Y005659D01*
X065048Y005777D02*
X065048Y005836D01*
X063237Y005836D01*
X063237Y005777D01*
X063237Y004753D02*
X063237Y004694D01*
X067114Y004694D02*
X068926Y004694D01*
X068926Y004753D01*
X068256Y004871D02*
X068256Y005659D01*
X068926Y005777D02*
X068926Y005836D01*
X067114Y005836D01*
X067114Y005777D01*
X067114Y004753D02*
X067114Y004694D01*
X070987Y004694D02*
X072798Y004694D01*
X072798Y004753D01*
X072129Y004871D02*
X072129Y005659D01*
X072798Y005777D02*
X072798Y005836D01*
X070987Y005836D01*
X070987Y005777D01*
X070987Y004753D02*
X070987Y004694D01*
X074859Y004694D02*
X076671Y004694D01*
X076671Y004753D01*
X076001Y004871D02*
X076001Y005659D01*
X076671Y005777D02*
X076671Y005836D01*
X074859Y005836D01*
X074859Y005777D01*
X074859Y004753D02*
X074859Y004694D01*
D12*
X042265Y009115D02*
X041765Y009115D01*
X041765Y010415D02*
X042265Y010415D01*
X042165Y012140D02*
X042165Y012640D01*
X040865Y012640D02*
X040865Y012140D01*
M02*
